<svg xmlns="http://www.w3.org/2000/svg" width="1392" height="912" viewBox="0 0 1392 912">
    <defs>
        <filter id="shadow">
            <feGaussianBlur in="SourceAlpha" stdDeviation="10"/>
            <feOffset dy="5"/>
            <feBlend in="SourceGraphic" in2="blurOut"/>
        </filter>
        <filter id="background-filter" x="0%" y="0%" width="100%" height="100%" color-interpolation-filters="sRGB" filterUnits="objectBoundingBox" primitiveUnits="userSpaceOnUse">
            <feTurbulence width="100%" height="100%" x="0%" y="0%" baseFrequency="0.004 0.003" numOctaves="2" result="turbulence" seed="156" stitchTiles="stitch" type="fractalNoise"/>
            <feGaussianBlur width="100%" height="100%" x="0%" y="0%" in="turbulence" result="blur" stdDeviation="34 31"/>
            <feBlend width="100%" height="100%" x="0%" y="0%" in="SourceGraphic" in2="blur" mode="color" result="blend"/>
        </filter>
    </defs>
    <rect fill="#5a818a" width="1392" height="912"/>
    <rect fill="#5a575f" filter="url(#shadow)" x="305" y="305" width="295" height="295"/>
    <rect fill="#5a575f" filter="url(#background-filter)" x="305" y="305" width="295" height="295"/>
    <path transform="translate(305,305)" fill="white" fill-opacity="0.4" d="M0 0v295h295V0zm1 1h48v48H1zm49 0h48v48H50zm49 0h48v48H99zm49 0h48v48h-48zm49 0h48v48h-48zm49 0h48v48h-48zM1 50h48v48H1zm49 0h48v48H50zm49 0h48v48H99zm49 0h48v48h-48zm49 0h48v48h-48zm49 0h48v48h-48zM1 99h48v48H1zm49 0h48v48H50zm49 0h48v48H99zm49 0h48v48h-48zm49 0h48v48h-48zm49 0h48v48h-48zM1 148h48v48H1zm49 0h48v48H50zm49 0h48v48H99zm49 0h48v48h-48zm49 0h48v48h-48zm49 0h48v48h-48zM1 197h48v48H1zm49 0h48v48H50zm49 0h48v48H99zm49 0h48v48h-48zm49 0h48v48h-48zm49 0h48v48h-48zM1 246h48v48H1zm49 0h48v48H50zm49 0h48v48H99zm49 0h48v48h-48zm49 0h48v48h-48zm49 0h48v48h-48z"/>
    <path fill="black" fill-opacity="0.2" filter="url(#shadow)" d="M898 38v32h32V38zm38 0v32h32V38zm38 0v32h32V38zm38 0v32h32V38zm38 0v32h32V38zm38 0v32h32V38zm38 0v32h32V38zm38 0v32h32V38zm38 0v32h32V38zm38 0v32h32V38zm38 0v32h32V38zm38 0v32h32V38zM898 76v32h32V76zm38 0v32h32V76zm38 0v32h32V76zm38 0v32h32V76zm38 0v32h32V76zm38 0v32h32V76zm38 0v32h32V76zm38 0v32h32V76zm38 0v32h32V76zm38 0v32h32V76zm38 0v32h32V76zm38 0v32h32V76zm-418 38v32h32v-32zm38 0v32h32v-32zm38 0v32h32v-32zm38 0v32h32v-32zm38 0v32h32v-32zm38 0v32h32v-32zm38 0v32h32v-32zm38 0v32h32v-32zm38 0v32h32v-32zm38 0v32h32v-32zm38 0v32h32v-32zm38 0v32h32v-32z"/>
    <text fill="white" font-family="Luckiest Guy" font-size="16px" x="37" y="22">/60</text>
    <g fill="white" font-family="Recursive Sans Casual Static">
        <g font-size="18px">
            <text x="324" y="295">1</text>
            <text x="373" y="295">2</text>
            <text x="422" y="295">3</text>
            <text x="471" y="295">4</text>
            <text x="520" y="295">5</text>
            <text x="569" y="295">6</text>
            <text x="283" y="337">A</text>
            <text x="283" y="386">B</text>
            <text x="283" y="435">C</text>
            <text x="283" y="484">D</text>
            <text x="283" y="533">E</text>
            <text x="283" y="582">F</text>
        </g>
        <g font-size="13px">
            <text x="910" y="59">1</text>
            <text x="948" y="59">2</text>
            <text x="986" y="59">3</text>
            <text x="1024" y="59">4</text>
            <text x="1062" y="59">5</text>
            <text x="1100" y="59">6</text>
            <text x="1138" y="59">7</text>
            <text x="1176" y="59">8</text>
            <text x="1214" y="59">9</text>
            <text x="1248" y="59">10</text>
            <text x="1286" y="59">11</text>
            <text x="1324" y="59">12</text>
            <text x="906" y="97">13</text>
            <text x="944" y="97">14</text>
            <text x="982" y="97">15</text>
            <text x="1020" y="97">16</text>
            <text x="1058" y="97">17</text>
            <text x="1096" y="97">18</text>
            <text x="1134" y="97">19</text>
            <text x="1172" y="97">20</text>
            <text x="1210" y="97">21</text>
            <text x="1248" y="97">22</text>
            <text x="1286" y="97">23</text>
            <text x="1324" y="97">24</text>
            <text x="906" y="135">25</text>
            <text x="944" y="135">26</text>
            <text x="982" y="135">27</text>
            <text x="1020" y="135">28</text>
            <text x="1058" y="135">29</text>
            <text x="1096" y="135">30</text>
            <text x="1134" y="135">31</text>
            <text x="1172" y="135">32</text>
            <text x="1210" y="135">33</text>
            <text x="1248" y="135">34</text>
            <text x="1286" y="135">35</text>
            <text x="1324" y="135">36</text>
        </g>
    </g>
</svg>
