<svg xmlns="http://www.w3.org/2000/svg" width="785" height="785" viewBox="0 0 785 785">
    <defs>
        <filter id="background-filter" x="0%" y="0%" width="100%" height="100%" color-interpolation-filters="sRGB" filterUnits="objectBoundingBox" primitiveUnits="userSpaceOnUse">
            <feTurbulence width="100%" height="100%" x="0%" y="0%" baseFrequency="0.004 0.003" numOctaves="2" result="turbulence" seed="156" stitchTiles="stitch" type="fractalNoise"/>
            <feGaussianBlur width="100%" height="100%" x="0%" y="0%" in="turbulence" result="blur" stdDeviation="34 31"/>
            <feBlend width="100%" height="100%" x="0%" y="0%" in="SourceGraphic" in2="blur" mode="color" result="blend"/>
        </filter>
    </defs>
    <rect fill="#5a575f" filter="url(#background-filter)" width="785" height="785"/>
    <path fill="white" fill-opacity="0.4" d="M0 0v785h785V0zm1 1h48v48H1zm49 0h48v48H50zm49 0h48v48H99zm49 0h48v48h-48zm49 0h48v48h-48zm49 0h48v48h-48zm49 0h48v48h-48zm49 0h48v48h-48zm49 0h48v48h-48zm49 0h48v48h-48zm49 0h48v48h-48zm49 0h48v48h-48zm49 0h48v48h-48zm49 0h48v48h-48zm49 0h48v48h-48zm49 0h48v48h-48zM1 50h48v48H1zm49 0h48v48H50zm49 0h48v48H99zm49 0h48v48h-48zm49 0h48v48h-48zm49 0h48v48h-48zm49 0h48v48h-48zm49 0h48v48h-48zm49 0h48v48h-48zm49 0h48v48h-48zm49 0h48v48h-48zm49 0h48v48h-48zm49 0h48v48h-48zm49 0h48v48h-48zm49 0h48v48h-48zm49 0h48v48h-48zM1 99h48v48H1zm49 0h48v48H50zm49 0h48v48H99zm49 0h48v48h-48zm49 0h48v48h-48zm49 0h48v48h-48zm49 0h48v48h-48zm49 0h48v48h-48zm49 0h48v48h-48zm49 0h48v48h-48zm49 0h48v48h-48zm49 0h48v48h-48zm49 0h48v48h-48zm49 0h48v48h-48zm49 0h48v48h-48zm49 0h48v48h-48zM1 148h48v48H1zm49 0h48v48H50zm49 0h48v48H99zm49 0h48v48h-48zm49 0h48v48h-48zm49 0h48v48h-48zm49 0h48v48h-48zm49 0h48v48h-48zm49 0h48v48h-48zm49 0h48v48h-48zm49 0h48v48h-48zm49 0h48v48h-48zm49 0h48v48h-48zm49 0h48v48h-48zm49 0h48v48h-48zm49 0h48v48h-48zM1 197h48v48H1zm49 0h48v48H50zm49 0h48v48H99zm49 0h48v48h-48zm49 0h48v48h-48zm49 0h48v48h-48zm49 0h48v48h-48zm49 0h48v48h-48zm49 0h48v48h-48zm49 0h48v48h-48zm49 0h48v48h-48zm49 0h48v48h-48zm49 0h48v48h-48zm49 0h48v48h-48zm49 0h48v48h-48zm49 0h48v48h-48zM1 246h48v48H1zm49 0h48v48H50zm49 0h48v48H99zm49 0h48v48h-48zm49 0h48v48h-48zm49 0h48v48h-48zm49 0h48v48h-48zm49 0h48v48h-48zm49 0h48v48h-48zm49 0h48v48h-48zm49 0h48v48h-48zm49 0h48v48h-48zm49 0h48v48h-48zm49 0h48v48h-48zm49 0h48v48h-48zm49 0h48v48h-48zM1 295h48v48H1zm49 0h48v48H50zm49 0h48v48H99zm49 0h48v48h-48zm49 0h48v48h-48zm49 0h48v48h-48zm49 0h48v48h-48zm49 0h48v48h-48zm49 0h48v48h-48zm49 0h48v48h-48zm49 0h48v48h-48zm49 0h48v48h-48zm49 0h48v48h-48zm49 0h48v48h-48zm49 0h48v48h-48zm49 0h48v48h-48zM1 344h48v48H1zm49 0h48v48H50zm49 0h48v48H99zm49 0h48v48h-48zm49 0h48v48h-48zm49 0h48v48h-48zm49 0h48v48h-48zm49 0h48v48h-48zm49 0h48v48h-48zm49 0h48v48h-48zm49 0h48v48h-48zm49 0h48v48h-48zm49 0h48v48h-48zm49 0h48v48h-48zm49 0h48v48h-48zm49 0h48v48h-48zM1 393h48v48H1zm49 0h48v48H50zm49 0h48v48H99zm49 0h48v48h-48zm49 0h48v48h-48zm49 0h48v48h-48zm49 0h48v48h-48zm49 0h48v48h-48zm49 0h48v48h-48zm49 0h48v48h-48zm49 0h48v48h-48zm49 0h48v48h-48zm49 0h48v48h-48zm49 0h48v48h-48zm49 0h48v48h-48zm49 0h48v48h-48zM1 442h48v48H1zm49 0h48v48H50zm49 0h48v48H99zm49 0h48v48h-48zm49 0h48v48h-48zm49 0h48v48h-48zm49 0h48v48h-48zm49 0h48v48h-48zm49 0h48v48h-48zm49 0h48v48h-48zm49 0h48v48h-48zm49 0h48v48h-48zm49 0h48v48h-48zm49 0h48v48h-48zm49 0h48v48h-48zm49 0h48v48h-48zM1 491h48v48H1zm49 0h48v48H50zm49 0h48v48H99zm49 0h48v48h-48zm49 0h48v48h-48zm49 0h48v48h-48zm49 0h48v48h-48zm49 0h48v48h-48zm49 0h48v48h-48zm49 0h48v48h-48zm49 0h48v48h-48zm49 0h48v48h-48zm49 0h48v48h-48zm49 0h48v48h-48zm49 0h48v48h-48zm49 0h48v48h-48zM1 540h48v48H1zm49 0h48v48H50zm49 0h48v48H99zm49 0h48v48h-48zm49 0h48v48h-48zm49 0h48v48h-48zm49 0h48v48h-48zm49 0h48v48h-48zm49 0h48v48h-48zm49 0h48v48h-48zm49 0h48v48h-48zm49 0h48v48h-48zm49 0h48v48h-48zm49 0h48v48h-48zm49 0h48v48h-48zm49 0h48v48h-48zM1 589h48v48H1zm49 0h48v48H50zm49 0h48v48H99zm49 0h48v48h-48zm49 0h48v48h-48zm49 0h48v48h-48zm49 0h48v48h-48zm49 0h48v48h-48zm49 0h48v48h-48zm49 0h48v48h-48zm49 0h48v48h-48zm49 0h48v48h-48zm49 0h48v48h-48zm49 0h48v48h-48zm49 0h48v48h-48zm49 0h48v48h-48zM1 638h48v48H1zm49 0h48v48H50zm49 0h48v48H99zm49 0h48v48h-48zm49 0h48v48h-48zm49 0h48v48h-48zm49 0h48v48h-48zm49 0h48v48h-48zm49 0h48v48h-48zm49 0h48v48h-48zm49 0h48v48h-48zm49 0h48v48h-48zm49 0h48v48h-48zm49 0h48v48h-48zm49 0h48v48h-48zm49 0h48v48h-48zM1 687h48v48H1zm49 0h48v48H50zm49 0h48v48H99zm49 0h48v48h-48zm49 0h48v48h-48zm49 0h48v48h-48zm49 0h48v48h-48zm49 0h48v48h-48zm49 0h48v48h-48zm49 0h48v48h-48zm49 0h48v48h-48zm49 0h48v48h-48zm49 0h48v48h-48zm49 0h48v48h-48zm49 0h48v48h-48zm49 0h48v48h-48zM1 736h48v48H1zm49 0h48v48H50zm49 0h48v48H99zm49 0h48v48h-48zm49 0h48v48h-48zm49 0h48v48h-48zm49 0h48v48h-48zm49 0h48v48h-48zm49 0h48v48h-48zm49 0h48v48h-48zm49 0h48v48h-48zm49 0h48v48h-48zm49 0h48v48h-48zm49 0h48v48h-48zm49 0h48v48h-48zm49 0h48v48h-48z"/>
</svg>
