<svg xmlns="http://www.w3.org/2000/svg" viewBox="0 0 1392 912">
    <rect fill="black" fill-opacity="0.8" width="1392" height="912"/>
    <g fill="white" fill-opacity="0.5">
        <path d="M553.873 107.449c-7.26 3.63-8.528 12.562-2.42 17.69 2.248 1.844 5.474 2.939 7.607 2.478 2.362-.461 1.613.634-1.441 2.017-3.976 1.786-11.928 1.267-19.822-1.268-1.729-.576-1.844-.75-1.498-2.535.749-4.092-1.844-7.952-5.82-8.701-2.766-.519-5.993 1.21-7.03 3.63-.577 1.44-1.038 1.901-1.787 1.67-8.413-2.592-18.9-3.226-26.621-1.613-12.62 2.593-23.74 9.162-27.314 16.192-1.094 2.075-1.901 6.973-1.152 6.973.519 0 1.96-2.65 1.96-3.573 0-.634 2.88-3.342 3.572-3.342.288 0 .346-.288.173-.576-.173-.346-.922-.576-1.556-.576-1.21 0-1.21 0-.115-1.21 1.383-1.614 5.243-3.343 7.26-3.4 2.824 0 4.207 2.996 1.729 3.63-.865.23-.865.288 0 .346 1.556.115 2.305-1.844 1.325-3.285-.807-1.095-.749-1.21.864-1.556 1.671-.345 2.478-2.016 1.038-2.016-.519 0-.461-.23.115-.577 1.268-.806 4.955-.691 7.203.23 2.65 1.096 3.342 3.516 1.44 5.072-.98.749-1.037 1.037-.345 1.037.98 0 2.074-1.671 2.074-3.342 0-1.326-2.017-3.227-4.322-4.034l-1.728-.576 1.728-.058c.98-.057 2.363-.23 3.17-.46l1.44-.404-1.44-.461c-.865-.288-.289-.346 1.613-.115 1.729.173 4.149.691 5.359 1.21 4.206 1.67 6.338 5.82 4.38 8.47-.923 1.21-3.458 1.383-4.726.346-1.037-.864-1.152-3.515-.115-4.61.576-.691.518-.691-.288-.057-1.037.806-1.383 3.284-.576 4.437.749 1.21 3.111 2.074 4.552 1.67.864-.172 1.728-1.036 2.247-2.304.691-1.729.691-2.305 0-3.976-1.268-3.054-5.128-5.417-10.142-6.281-1.21-.23-1.21-.23.346-.346 4.091-.173 8.644 2.478 10.43 5.993.922 1.786 2.939 3.688 3.918 3.745.346 0 .922-.749 1.268-1.67.749-2.075-.288-4.15-3.63-6.915l-2.248-1.844 2.536.922c4.61 1.613 14.348 7.145 14.751 8.355.23.634.23 1.902 0 2.824-.23 1.152 0 2.362.807 3.86.691 1.21 1.21 2.709 1.21 3.227 0 1.21.922 1.383 1.325.288.23-.518.346-.518.346.058.058.749-1.498 2.362-5.935 6.223-1.383 1.21-2.074 2.305-2.074 3.342 0 .807.288 1.498.576 1.498 1.325 0 3.918-1.728 5.935-3.975 2.478-2.709 3.515-6.166 3.112-10.142-.289-2.65-.289-2.766.288-.864.691 2.42.288 6.799-.922 9.104-1.268 2.535-4.322 5.186-7.03 6.223-3.515 1.326-9.162.922-11.64-.864-3.918-2.766-5.359-9.162-2.996-13.08 1.267-2.017 6.165-4.84 8.412-4.84 2.94 0 6.685 2.42 7.722 4.897.403.922.518.98.518.173.058-1.383-2.765-4.552-4.955-5.417-4.149-1.786-9.393-.345-12.677 3.458-2.305 2.535-2.708 3.976-2.363 8.413.519 6.914 5.705 11.236 13.426 11.236 11.928-.115 19.074-10.833 14.752-22.242-1.44-3.746-1.44-3.4-.173-3.4.519 0 1.844-.461 2.939-1.037 1.959-1.037 1.959-1.037 6.626.864 13.427 5.36 24.951 4.61 44.889-2.939 10.545-3.976 13.944-4.955 19.36-5.531 4.668-.519 8.702-1.671 8.702-2.536 0-.922-7.491.23-12.85 1.96-2.881.921-5.359 1.613-5.474 1.498-.23-.289 7.952-3.458 11.121-4.322 4.725-1.268 9.162-.461 11.467 2.19.634.691 1.21 2.42 1.383 4.09.23 2.651.115 2.997-1.786 4.899-1.672 1.67-2.42 2.016-4.553 2.016-3.111 0-5.992-1.728-7.087-4.206l-.807-1.844-.058 1.556c-.057 3.803 5.59 7.318 10.43 6.511 7.952-1.383 9.68-12.792 2.65-17.46-1.9-1.267-3.168-1.613-6.683-1.728-5.59-.288-8.356.634-23.05 7.664-10.199 4.84-18.727 8.355-20.283 8.355-.346 0 .23-.691 1.21-1.498 5.82-4.956 5.993-14.982.346-20.63-3.976-4.033-9.047-4.84-14.118-2.304m8.413 2.247c4.264 1.787 6.512 5.302 6.512 10.084 0 4.322-2.017 7.895-5.474 9.623-1.441.75-1.268.519.806-1.325 2.881-2.478 4.092-4.956 4.092-8.24 0-2.593-.865-5.244-1.672-5.244-.345 0-1.267.634-2.132 1.383-1.383 1.153-1.67 1.902-2.016 5.532-.23 2.535-.692 4.38-1.153 4.667-1.383.98-5.59.173-7.664-1.383-5.531-4.264-4.84-11.524 1.383-14.693 2.997-1.499 4.495-1.556 7.318-.404m-30.655 9.508c1.786.691 3.342 3.976 2.824 6.108-.23.807-.692 1.325-1.038 1.21-.345-.115-2.65-.98-5.07-1.901-2.478-.922-4.495-1.902-4.495-2.133 0-.288.75-1.267 1.671-2.19 1.786-1.728 3.515-2.074 6.108-1.094m-20.456 3.457c2.305.634 7.78 3.919 7.318 4.38-.173.173-1.671-.404-3.4-1.268-1.67-.864-4.725-2.19-6.8-2.939-3.168-1.21-3.399-1.325-1.44-1.095 1.268.173 3.227.577 4.322.922m13.08 3.515c1.383 1.21 2.536 1.671 4.092 1.671 1.152 0 2.535.23 2.996.577.634.403.519.633-.75 1.094-2.304.865-4.32.807-4.84-.23-.288-.519-1.959-1.96-3.63-3.285-2.708-2.016-2.938-2.304-1.498-1.959.98.23 2.593 1.21 3.63 2.132m4.207.865c0 .518-1.614.173-2.65-.634-.98-.75-.923-.807.806-.23.98.345 1.844.748 1.844.864m447.902-18.67c-1.038.518-2.19 2.65-1.672 3.17.116.114.865-.058 1.73-.347 1.094-.46 1.497-1.037 1.497-2.074 0-.807-.057-1.44-.115-1.383-.115 0-.749.288-1.44.634m-154.948 1.268c-4.84 2.247-7.722 7.03-7.722 12.734 0 4.091 1.153 6.857 4.207 9.969l2.362 2.42-3.975-1.383c-5.417-1.844-6.915-2.535-19.304-8.413-12.1-5.762-15.5-6.914-20.399-6.914-6.165 0-10.602 3.342-11.582 8.7-1.556 8.586 8.644 14.291 15.04 8.414 1.613-1.441 2.074-2.363 2.247-4.437.23-2.363.23-2.42-.23-.634-.289 1.037-1.21 2.593-2.017 3.457-1.326 1.325-2.017 1.498-5.302 1.498-3.457 0-3.918-.173-5.186-1.613-1.037-1.268-1.382-2.305-1.382-4.552 0-2.478.23-3.112 1.901-4.783 2.305-2.305 5.301-2.996 9.335-2.19 3.054.634 14.29 4.783 13.945 5.129-.116.115-2.536-.577-5.36-1.498-5.82-2.017-11.293-2.997-13.368-2.478-1.152.288-.922.46 1.729 1.325 1.671.576 4.84 1.153 7.03 1.383 2.535.173 6.742 1.268 11.524 2.996 18.036 6.339 20.514 7.088 25.412 8.01 8.932 1.729 19.361.461 28.12-3.285 2.65-1.152 2.881-1.152 4.783-.288 1.095.577 2.535.98 3.111.98 1.383 0 1.383-.115.058 2.939-2.766 6.223-1.902 12.62 2.247 17.344 3.342 3.86 6.742 5.302 12.447 5.302 4.206.057 4.898-.116 7.433-1.672 5.359-3.284 7.606-10.602 4.898-15.846-3.054-5.935-11.467-8.182-16.134-4.206-1.844 1.498-3.458 4.149-3.458 5.474.058.403.404-.058.807-.98 2.996-6.684 11.87-6.857 16.365-.288 1.556 2.363 1.67 5.705.173 8.99-3.515 7.72-15.962 7.49-21.205-.462-1.441-2.132-1.614-2.938-1.614-7.03 0-2.766.288-5.128.75-5.82.633-1.037.633-.98.287.577-.288.922-.46 3.457-.46 5.531 0 3.17.23 4.15 1.613 6.224.864 1.325 2.823 3.169 4.321 4.149 2.651 1.67 2.709 1.67 3.112.518.461-1.268-.864-4.61-1.786-4.61-.75 0-5.82-4.61-5.82-5.301 0-.346.346-.288.864.115.75.634.865.461.865-.806 0-.865.46-2.363.98-3.4.633-1.153.921-2.824.806-4.495-.058-1.67.115-2.823.634-3.227 1.325-1.094 14.405-7.663 15.27-7.663.403 0-.115.806-1.268 1.786-2.939 2.593-3.918 4.667-3.054 6.569.346.807.864 1.44 1.153 1.44 1.037 0 3.342-1.901 3.342-2.766 0-.46 1.152-1.959 2.535-3.284 2.42-2.363 5.993-3.803 9.104-3.688.75 0 0 .346-1.613.75-1.613.403-3.803 1.21-4.898 1.843-2.305 1.325-4.552 4.495-4.552 6.281 0 2.017 2.132 4.322 3.976 4.322 3.227 0 5.301-3.919 3.17-5.993-1.269-1.268-1.787-1.152-.635.115 1.326 1.498 1.21 3.342-.288 4.38-1.67 1.21-2.939 1.152-4.091-.116-1.325-1.44-1.21-4.264.173-6.05 1.556-1.96 5.359-3.688 8.931-4.034 1.614-.173 2.42-.173 1.844 0-1.498.404-.576 1.326 1.383 1.326.922 0 1.671.23 1.671.576 0 .288-.345.576-.749.576-1.268 0-3.284 2.536-3.284 4.207 0 1.44 1.786 3.342 3.169 3.284.288-.058-.115-.46-.98-.922-1.67-.864-2.016-2.362-1.037-4.264.75-1.44 4.725-2.478 7.606-2.017 2.017.346 2.132.461 1.268 1.153-.922.691-.922.749.23 1.383.634.345 1.614.633 2.19.633.922 0 .922.116-.115 1.21-1.268 1.441-.519 3.055 1.556 3.227l1.383.116-1.383-.404c-1.787-.576-2.075-1.44-.922-2.65 1.325-1.326 3.054-1.153 6.454.518 3.572 1.787 4.955 3.17 3.169 3.17-1.556 0-2.19 1.037-.922 1.555 1.44.519 3.111 2.305 3.111 3.285 0 .403.404 1.556.865 2.42l.864 1.671v-2.766c0-8.413-11.121-17.056-26.967-20.975-5.705-1.382-16.769-1.267-23.74.346-2.997.634-5.475 1.21-5.59 1.21-.116 0-.173-.403-.173-.922 0-.46-.75-1.67-1.671-2.593-1.44-1.383-2.19-1.67-4.552-1.67-4.726 0-7.491 3.284-6.858 8.066l.289 2.305-4.092 1.326c-5.704 1.786-16.019 1.844-18.554.115l-1.729-1.153 1.44-.172c4.092-.461 5.36-.922 7.319-2.593 2.362-2.075 4.206-5.647 4.206-8.183 0-4.264-4.033-9.22-8.586-10.603-3.226-.921-5.186-.806-8.47.75m10.775 3.515c2.19 1.44 3.976 4.437 3.976 6.741-.057 2.248-2.074 5.993-4.033 7.376-.98.692-2.997 1.44-4.437 1.614-3.342.345-4.207-.634-4.207-4.956 0-3.688-.634-5.013-2.88-6.166-1.672-.864-1.787-.864-2.306.577-.922 2.42-.691 6.742.461 8.931.577 1.095 2.305 2.881 3.803 3.86 2.94 2.018 3.112 2.479.404 1.096-2.19-1.153-5.129-4.61-5.59-6.57-.173-.864-.403-1.9-.576-2.304-.518-1.671 1.095-6.454 2.824-8.47 3.4-3.861 8.297-4.553 12.561-1.73m28.293 9.335c1.96 1.73 1.095 3.055-2.996 4.61-2.075.807-4.264 1.44-4.898 1.499-2.536.23-1.383-5.244 1.383-6.8 1.844-1.037 4.955-.75 6.511.691m17.172 2.709c-2.075.691-5.417 2.19-7.491 3.227-2.363 1.152-3.4 1.498-2.939.922 1.325-1.614 5.301-3.688 8.701-4.61 4.84-1.326 5.935-1.037 1.729.46m-14.348 3.516c-1.96 1.44-3.515 2.88-3.515 3.227 0 .691-4.898.403-5.647-.288-.634-.692 1.21-1.499 3.515-1.499 1.555 0 2.593-.403 3.572-1.383 1.21-1.21 3.688-2.477 5.129-2.593.23-.057-1.095 1.095-3.054 2.536m-3.515.288c-.461.288-1.268.576-1.729.576-.75 0-.75-.058 0-.576.461-.288 1.268-.576 1.729-.576.749 0 .749.057 0 .576m73.757-17.978c-.461.172-1.326.633-1.844 1.094-.807.692-1.325.75-2.766.288-.98-.345-2.19-.46-2.766-.288-1.786.634-3.573 2.651-3.573 4.034 0 1.037-.345 1.325-1.382 1.325-2.19 0-3.227.577-4.15 2.42-.921 1.787-.69 3.573.75 5.129.749.864.634 1.152-.634 2.42-2.074 2.074-2.074 5.07 0 6.684 2.132 1.671 3.918 1.614 3.515-.115-2.074-8.298.864-15.616 7.49-18.67 2.71-1.267 3.746-1.44 7.204-1.21 4.84.346 8.067 2.305 10.199 6.223 2.766 5.014 1.325 12.39-2.996 14.982-2.536 1.556-7.549 1.556-10.084 0-2.42-1.498-3.804-4.667-3.4-7.721.634-4.495 5.59-6.972 8.643-4.322 2.248 2.017 2.478 3.919.75 6.454l-1.441 2.132h1.844c4.955-.058 6.453-6.05 2.132-8.528-.922-.519-1.729-1.268-1.729-1.671 0-1.037-2.881-3.054-4.322-3.054-.691 0-1.959.518-2.766 1.152-.806.634-2.016 1.153-2.708 1.153-1.959 0-3.515 1.095-4.38 3.227-.748 1.728-.69 2.19.174 4.09.518 1.21.922 3.112.864 4.207-.173 2.997 2.363 5.474 5.244 5.129.806-.116 1.959.518 3.111 1.67.98 1.038 2.19 1.845 2.709 1.845 1.728 0 3.86-1.153 4.437-2.478.46-1.095.922-1.268 2.593-1.095 2.823.346 4.84-1.556 4.84-4.552 0-1.153-.403-2.42-.864-2.824-.75-.634-.692-.864.518-1.786.75-.576 1.498-1.729 1.614-2.478.403-2.074-.98-4.84-2.593-5.243-1.21-.346-1.383-.692-1.326-2.997.058-3.457-1.67-5.013-5.243-4.61-1.844.173-2.651 0-3.342-.749-.98-1.095-2.997-1.67-4.322-1.267m36.302.518c-.46.173-1.325.692-1.844 1.153-.691.633-1.21.691-2.132.23-2.881-1.556-5.82-.46-7.49 2.708-.635 1.153-1.153 1.671-1.21 1.153-.058-2.42-5.36-4.38-6.916-2.478-.922 1.095-.46 2.939.692 2.708 1.786-.288 2.362 1.556 2.65 8.125l.289 6.454.749-3.054c1.498-5.705 4.782-10.66 8.413-12.562.864-.46 2.708-.807 4.09-.807 4.899 0 7.492 5.014 5.072 9.912-1.614 3.342-5.36 6.914-9.566 9.104-2.593 1.325-2.996 1.671-1.728 1.498.98-.173 3.572-.576 5.877-.922 4.668-.749 6.281-.46 6.8 1.21.46 1.383 2.477 1.268 3.4-.23.979-1.556-1.21-5.186-3.285-5.59l-1.671-.288 1.728-1.267c2.536-1.844 3.17-4.207 1.844-6.8-.806-1.613-.922-2.363-.46-3.63.921-2.363.115-4.61-2.017-5.878-1.96-1.21-1.96-1.21-3.285-.749m-524.136 1.902c-.692.23-1.73 1.095-2.305 1.844-.807.98-1.556 1.267-2.94 1.152-1.44-.115-2.246.173-3.399 1.325-1.325 1.326-1.498 1.844-1.21 3.919.288 2.017.115 2.535-1.095 3.688-2.074 1.901-1.959 5.474.288 7.145 1.499 1.095 1.556 1.383 1.038 2.823-1.268 3.343 2.074 6.973 5.474 5.993 1.556-.46 2.017-.346 3.111.75 1.787 1.786 4.495 1.728 6.281-.116.807-.75 1.44-1.786 1.44-2.305 0-.576.577-.864 1.73-.864 3.284 0 5.762-4.15 4.09-6.857-.287-.461-.172-1.556.289-2.709.691-1.67.691-2.247 0-3.918-.98-2.363-1.614-2.766-5.244-3.4-1.556-.23-3.745-.576-4.783-.806-2.074-.346-3.803.749-4.494 2.938-.23.634-1.153 1.902-2.017 2.709-3.86 3.572-.058 9.565 4.84 7.663.634-.23.461-.691-.806-1.959-4.956-4.898 1.901-11.063 7.087-6.396 1.787 1.556 1.902 1.96 1.902 5.244 0 3.342-.115 3.63-2.132 5.474-3.63 3.342-9.335 3.4-12.62.115-2.42-2.42-3.457-5.07-3.457-8.758 0-4.84 2.363-8.644 6.972-11.006 2.997-1.499 9.393-1.441 12.39.172 5.012 2.651 8.009 7.837 8.009 13.83.057 4.091.864 4.667 3.17 2.247 1.9-2.074 1.497-5.359-.865-6.972-1.614-1.095-1.729-1.325-1.037-2.305.864-1.153 1.037-3.054.46-4.61-.518-1.325-3.572-2.766-5.186-2.362-1.037.288-1.382.115-1.382-.519 0-.519-.634-1.556-1.441-2.305-1.613-1.613-4.034-1.844-5.878-.576-1.094.749-1.383.749-2.88 0-1.845-.98-1.787-.98-3.4-.288m-42.238 5.992c.634 1.326 3.4 2.478 3.4 1.383 0-1.383-1.326-2.765-2.593-2.765-1.268 0-1.383.115-.807 1.382m23.971.116a3.903 3.903 0 0 0-1.959 2.593l-.346 1.728-1.613-1.959c-2.017-2.478-3.976-2.88-6.684-1.498-1.441.75-2.305.922-2.709.519-.345-.346-1.44-.577-2.477-.577-3.804 0-6.281 4.84-3.861 7.549.749.864.807 1.325.173 2.996-1.038 2.882.057 5.186 3.111 6.685 1.729.806 2.075 1.152 1.21 1.21-2.593.057-4.84 5.243-2.88 6.857 1.267 1.037 2.88.576 3.11-.922.231-1.729 3.055-2.478 9.336-2.535h4.898l-3.63-1.038c-10.2-2.938-15.732-10.833-11.295-16.134 4.207-5.07 13.08-.922 17.46 8.182 2.017 4.092 2.074 3.803.922-3.111-.922-5.763-.75-7.03 1.21-7.952 1.614-.692 1.729-1.383.461-2.593-1.095-1.153-2.362-1.153-4.437 0"/>
        <path d="M962.073 123.987c-3.112 1.67-3.573 2.132-4.725 5.013-.691 1.729-1.44 3.918-1.671 4.783l-.403 1.67 2.535-1.267c5.013-2.535 6.05-3.63 7.088-7.837.518-2.074.864-3.918.806-4.033-.115-.058-1.728.691-3.63 1.67m-542.98 9.739c1.902 3.573 1.96 3.63 6.397 5.301 2.42.922 4.61 1.498 4.783 1.326.23-.173-.634-2.132-1.96-4.265l-2.304-3.918-3.919-1.037c-2.19-.519-4.206-.98-4.437-.98-.23 0 .404 1.614 1.44 3.573m69.148-.346c.576.576 1.153.922 1.268.75.173-.174-.288-.635-.98-1.038-1.21-.749-1.21-.691-.288.288m-27.14 6.108c-2.132 2.65-7.088 5.647-11.698 7.088l-4.206 1.325 2.247.98c1.383.576 2.824.806 3.746.576 1.728-.403 4.09-2.478 4.09-3.457 0-.404 1.211-.865 2.767-1.095 1.498-.23 3.17-.75 3.688-1.153 1.21-.922 1.959-3.918 1.267-5.128-.403-.634-.806-.461-1.901.864m488.814-.691c-2.19.98-2.478 1.325-3.054 4.091-.346 1.613-.577 3.054-.519 3.112.115.115 1.498-.346 3.112-.922 2.42-.922 3.054-1.44 3.284-2.766.173-.922.519-2.305.75-3.17.46-1.786-.174-1.843-3.573-.345m15.5-.576c-.691.288-1.67 1.152-2.19 1.901-.806 1.268-1.094 1.383-2.535.807-2.42-.922-4.552-.115-5.647 2.19-.749 1.613-.807 2.247-.288 3.457.576 1.21.461 1.613-.75 2.823-1.9 1.902-1.9 4.553 0 6.397.75.806 1.787 1.44 2.306 1.44.576 0 .864.576.864 1.729 0 1.152.519 2.305 1.498 3.227 1.21 1.267 1.787 1.44 3.573 1.152 2.65-.403 2.766-.403 5.474 0 2.42.403 4.668-.46 5.359-2.017.23-.518.634-2.074.922-3.515 1.268-6.108 1.21-6.338-.173-7.836-.691-.75-1.67-1.383-2.132-1.383-.46 0-1.556-.807-2.42-1.729-3.688-3.918-9.68-.173-7.722 4.84.289.692.634.519 1.787-.806 1.095-1.326 1.901-1.73 3.515-1.73 2.478 0 3.169.404 4.091 2.133 1.613 3.054.23 6.569-3.17 8.01-4.206 1.786-8.182.172-10.026-3.976-2.305-5.014-.98-9.45 3.573-12.101 3.515-2.075 6.108-2.42 9.796-1.326 6.742 1.96 10.43 9.335 8.298 16.596-1.844 6.28-7.376 10.314-14.464 10.487-2.996.058-3.745.23-3.745.98 0 1.498 2.535 3.4 4.552 3.4 1.844 0 4.667-2.075 4.667-3.458 0-.403.519-.288 1.268.23 1.96 1.384 3.803 1.095 5.762-.806 1.383-1.44 1.671-2.132 1.44-3.4-.287-1.44-.114-1.786 1.269-2.362 2.65-1.095 3.687-4.437 2.074-6.742-.75-1.037-.75-1.383.058-2.939.749-1.556.749-2.017 0-3.746-.461-1.094-1.326-2.19-1.902-2.362-.864-.288-1.037-.75-.864-2.247.115-1.268-.173-2.363-1.095-3.515-1.21-1.499-1.498-1.614-4.091-1.326-2.19.288-2.881.173-3.17-.518-.288-.807-3.111-2.593-4.033-2.478-.23 0-1.037.23-1.729.519m-42.814.806c0 1.326 1.153 4.034 1.902 4.495.403.23 2.19.46 4.034.46 1.786 0 3.284.231 3.284.577 0 1.153 2.593 2.881 4.264 2.881.98 0 2.708-.576 3.803-1.267l2.017-1.21-4.61-.692c-5.186-.807-7.779-1.729-11.467-4.264-2.938-2.017-3.227-2.132-3.227-.98m-489.505 4.437c1.44 4.495 1.902 5.013 4.956 5.647 1.67.346 3.111.576 3.227.461.115-.115-.289-1.44-.807-2.996-1.095-2.824-1.729-3.285-5.532-3.976-2.132-.403-2.19-.346-1.844.864m-14.809 2.363c-.864.288-1.901 1.325-2.305 2.247-.634 1.44-.98 1.671-2.305 1.383-3.4-.75-6.165 2.19-5.474 5.878.173 1.037-.115 2.074-.807 2.996-1.44 1.844-1.44 4.783.058 6.108.807.75.98 1.268.576 1.671-.288.288-.576 1.556-.576 2.708 0 1.671.346 2.478 1.498 3.342.865.692 2.017 1.21 2.593 1.21.807 0 1.095.404 1.095 1.556.058 3.976 4.495 5.82 7.549 3.227.864-.691 1.152-.634 2.42.634 2.766 2.766 7.894 1.21 7.894-2.42 0-1.498.23-1.44-3.4-.634-5.935 1.268-13.022-1.729-15.961-6.742-2.305-3.918-2.535-8.931-.634-13.138 3.4-7.433 13.023-9.45 18.843-3.86 5.013 4.84 2.766 13.54-3.803 14.808-4.38.807-7.78-1.67-7.895-5.762-.115-4.264 4.725-6.223 7.952-3.227l1.44 1.326v-1.844c0-2.593-.806-3.861-2.938-4.61-2.305-.807-4.495.173-5.59 2.42-.403.864-1.094 1.556-1.555 1.556-1.095 0-3.17 2.823-3.17 4.322 0 .691.52 1.959 1.153 2.765.634.807 1.152 2.075 1.152 2.882 0 3.457 4.265 5.647 7.664 3.918 1.21-.634 2.766-.922 4.034-.75 2.939.347 5.244-1.958 4.898-4.84-.173-1.613 0-2.19.922-2.65 3.169-1.671 3.515-4.956.922-7.376-1.326-1.21-1.729-2.132-1.729-3.688 0-2.823-1.613-4.379-4.552-4.379-1.268 0-2.536.346-2.939.864-.576.692-.864.634-1.901-.576-1.556-1.671-3.112-2.074-5.129-1.325m524.194 2.939c-2.132 1.382-3.111 2.535-4.149 4.84-.691 1.67-1.094 3.054-.864 3.054.23 0 1.671-.864 3.227-1.902 2.19-1.44 3.054-2.477 3.86-4.667.577-1.614.98-2.939.923-3.054-.116-.058-1.44.691-2.997 1.729m-498.667 4.494c1.44 2.247 2.478 3.227 4.783 4.207 1.613.749 3.054 1.267 3.111 1.152.116-.058-.518-1.44-1.383-3.054-1.383-2.478-2.074-3.054-4.725-4.034-1.728-.691-3.227-1.21-3.342-1.21-.115 0 .576 1.326 1.556 2.94m503.277-.98c-1.268 2.938-.576 5.416 1.844 6.972 1.44.922 1.844 1.671 2.132 3.803.519 3.745 3.17 5.762 6.166 4.667l1.325-.518-1.268-.692c-2.362-1.267-6.108-6.972-7.721-11.812l-1.498-4.668zm-507.368 4.494c0 4.61-1.96 10.084-5.013 14.175-.807 1.038-1.268 2.075-1.095 2.248.173.23 1.383.057 2.593-.346 1.844-.519 2.42-1.037 2.939-2.708.403-1.153.576-2.766.403-3.63-.288-1.268 0-1.902 1.383-3.055 1.21-1.094 1.67-2.016 1.67-3.457 0-1.671-1.785-5.647-2.592-5.647-.173 0-.288 1.095-.288 2.42m512.497 14.81c.172.23 1.152.806 2.19 1.267 2.016.807 4.494 3.17 4.494 4.149 0 1.21 1.037-.461 1.268-1.902.172-1.325.288-1.21 2.016 1.383 3.112 4.668 3.17 8.47.173 8.874-1.152.173-1.268 0-1.037-1.325.23-.98.115-1.326-.23-.98-.346.346-.461 1.037-.346 1.614.23 1.267 2.593 1.786 3.515.864.46-.461.806-.115 1.325 1.095.807 1.901 1.96 2.305 2.017.691.057-2.017 1.037 1.21 1.037 3.63.058 2.882-.922 4.898-2.996 6.05-1.556.808-1.671.808-2.766-.518-.865-1.037-1.095-1.095-1.095-.403 0 .519.634 1.268 1.44 1.613 2.133.98 4.15-.172 5.475-3.169 1.095-2.362 1.152-2.362 1.152-.691 0 .922.173 2.362.404 3.169l.403 1.44.46-1.44c.289-.864.347-.23.116 1.729-.576 6.338-4.61 11.12-8.47 10.141-2.997-.749-3.227-4.61-.346-6.108.922-.518 1.498-.46 2.708.288l1.556.922-1.383-1.21c-1.556-1.325-3.227-1.095-4.783.692-2.305 2.65-.403 6.223 3.342 6.223 3.861 0 6.512-2.939 8.125-8.932l.75-2.88-.289 2.765c-.403 3.976-2.19 7.088-5.301 9.047-1.44.922-2.997 2.247-3.515 2.939-.807 1.152-.807 1.325.173 2.017.576.46 1.44.806 1.844.806 1.44 0 4.033-1.613 5.59-3.457 2.42-2.881 1.785-.807-2.075 6.857-3.976 7.721-4.84 8.586-8.298 7.606-1.44-.403-2.074-.346-2.593.288-.346.461-1.671 1.095-2.881 1.499-1.786.518-2.132.806-1.614 1.44.519.576.461.75-.057.75-.75 0-2.708-1.96-5.647-5.648-1.44-1.844-2.305-2.42-3.63-2.42-2.594 0-2.017 2.074 1.728 5.935 2.478 2.593 6.915 4.091 10.603 3.63l2.42-.288-2.247.634c-5.071 1.383-11.87-2.074-14.233-7.26-1.21-2.651-1.44-8.01-.461-10.545 2.074-5.532 9.335-7.895 14.29-4.61 5.82 3.86 5.705 13.138-.173 15.73-1.498.635-1.555.75-.518.808.691 0 2.074-.692 3.111-1.556 3.63-3.054 4.38-7.78 1.96-12.62-2.997-6.05-9.45-8.01-15.847-4.84-4.494 2.305-6.569 6.108-6.569 12.1 0 10.142 6.973 16.711 16.884 16.02 2.305-.173 4.783-.807 6.28-1.556l2.42-1.21v1.268c0 .749.52 2.132 1.096 3.111 1.095 1.787 1.095 1.844-.058 4.322-3.86 8.586-5.244 19.189-3.688 28.12.865 5.013 1.902 8.298 8.356 26.564 1.325 3.803 2.477 8.298 2.708 10.372.346 4.265 2.017 10.373 2.766 10.373.922 0-.23-7.491-1.96-12.85-.921-2.882-1.613-5.36-1.498-5.475.288-.23 3.458 7.952 4.322 11.122 2.074 7.606-1.325 13.368-7.433 12.792-1.96-.23-2.94-.692-4.207-2.132-1.498-1.729-1.67-2.19-1.44-5.013.288-3.515 2.132-5.935 5.243-6.973 1.21-.345 1.44-.576.75-.634-1.96-.115-5.82 2.19-6.973 4.092-1.613 2.708-1.556 7.664.115 10.026 1.671 2.363 4.553 3.688 7.952 3.688 3.054 0 5.071-.922 7.318-3.285 2.132-2.247 2.766-4.206 2.766-8.585 0-4.898-1.267-8.47-7.779-22.128-4.667-9.795-8.355-18.67-8.355-20.11 0-.23 1.037.519 2.305 1.729 6.28 5.993 17.056 4.61 21.608-2.65 1.44-2.306 1.729-3.4 1.729-6.34 0-8.758-8.125-14.29-15.616-10.66-3.4 1.671-5.704 5.186-5.704 8.759 0 1.498-.23 2.766-.461 2.766-.23 0-.98-1.21-1.671-2.708-1.038-2.305-1.153-3.458-.865-8.183.173-3.284.807-7.145 1.556-9.508 1.21-3.918 1.268-3.918 3.112-3.63 2.766.461 4.84-.173 6.626-1.959 3.342-3.285 2.593-8.816-1.383-10.718-1.44-.691-1.959-1.268-1.728-1.901 2.074-6.512 2.996-17.518 2.016-23.914-.864-5.82-3.515-13.945-6.108-18.554-2.765-4.956-7.433-9.854-10.89-11.525-2.824-1.268-7.03-1.844-6.396-.807m21.435 42.93c-.749 2.938-4.206 9.334-4.725 8.816-.115-.116.75-2.42 2.017-5.071 1.21-2.65 2.42-5.763 2.708-6.857.23-1.153.519-1.614.634-1.038.115.519-.115 2.363-.634 4.15m-2.074 11.581c-.346.865-1.268 2.363-2.017 3.285-.98 1.152-1.44 2.42-1.44 3.803 0 1.153-.231 2.535-.577 2.996-.403.634-.634.52-1.095-.749-1.037-2.766-.749-4.09 1.441-6.223 1.152-1.037 2.42-2.708 2.939-3.573 1.037-2.074 1.556-1.728.749.461m4.033 3.746c3.63 3.63 1.268 9.22-3.918 9.22-2.881 0-2.881.576-.346-6.224 1.614-4.379 2.363-4.898 4.264-2.996m-5.877 1.844c-.346 1.037-.75 1.556-.864 1.21-.23-.634.749-3.054 1.267-3.054.116 0-.057.864-.403 1.844m14.29 25.412c4.84 5.243 3.515 12.273-2.823 15.327-5.186 2.536-11.294.865-14.29-3.86-.923-1.441-1.672-2.94-1.672-3.227.058-.346.461.115.98 1.094 2.766 5.302 8.24 7.78 13.368 5.993 2.19-.749 2.248-1.152.173-3.457-1.44-1.614-2.017-1.786-5.59-2.017-2.189-.173-4.206-.576-4.494-.98-.749-1.152-.057-5.589 1.153-7.26.634-.807 2.017-2.132 3.111-2.823 1.614-1.153 2.478-1.326 5.071-1.095 2.708.173 3.4.518 5.013 2.305m-546.321-80.27c-3.054.692-5.186 2.133-8.586 5.763-9.565 10.372-13.599 27.89-10.141 44.37 1.383 6.626 1.383 6.338.23 6.338-.46 0-1.671.75-2.593 1.671-1.325 1.326-1.671 2.19-1.671 4.092 0 4.84 3.285 7.779 8.24 7.375 2.19-.173 2.305-.115 3.112 2.132 1.383 4.034 2.535 11.928 2.132 15.098-.173 1.613-.98 3.918-1.729 5.186l-1.325 2.19-.058-2.882c0-4.033-2.19-7.318-5.993-9.22-3.342-1.67-5.301-1.786-8.297-.576-4.553 1.96-7.203 6.108-7.203 11.352 0 6.684 5.186 11.813 12.504 12.389 4.783.403 8.067-.75 11.236-3.976 1.326-1.268 2.363-2.19 2.363-2.017 0 1.325-3.918 10.66-8.643 20.572-6.224 13.08-8.068 18.266-8.068 22.703.058 9.104 8.644 14.579 15.904 10.084 6.454-3.918 3.63-16.25-3.63-16.02l-1.613.058 1.843.519c.98.288 2.478 1.325 3.285 2.305 1.21 1.44 1.498 2.362 1.498 4.955 0 2.709-.23 3.343-1.729 4.898-1.67 1.614-2.016 1.73-5.013 1.499-2.708-.23-3.515-.577-4.84-2.017-2.074-2.42-2.535-5.417-1.44-10.2.864-3.63 4.321-12.734 4.667-12.33.115.115-.634 2.477-1.556 5.358-1.268 3.63-1.844 6.57-1.96 9.796l-.23 4.61 1.095-3.17c.576-1.728 1.326-5.3 1.671-7.951.346-2.65 1.44-6.915 2.363-9.508.922-2.593 2.996-8.413 4.552-12.85 1.613-4.495 3.342-10.314 3.803-12.907 1.786-9.335.922-18.67-2.65-27.832-1.153-2.997-1.556-4.725-1.153-5.186.288-.404.864-1.614 1.21-2.766l.634-2.017 3.918 1.325c11.18 3.919 21.436-3.572 21.436-15.673 0-4.091-2.363-8.644-5.647-10.891-3.342-2.362-8.586-2.766-12.158-.98-2.94 1.499-5.59 5.475-6.166 9.047-.634 4.322 2.593 9.278 6.684 10.257 1.037.288.864.115-.576-.634-4.437-2.305-5.935-7.894-3.285-12.504 1.73-3.112 3.861-4.494 7.146-4.783 6.8-.691 11.928 5.244 10.833 12.447-.75 4.956-3.746 8.932-8.183 10.833-2.017.807-7.26.922-9.104.173-.692-.23.288-.346 2.362-.173 2.075.173 4.38 0 5.647-.403 2.766-.922 5.878-3.63 7.26-6.396 1.096-2.132 1.096-2.19.059-2.536-1.614-.518-3.63.692-5.244 3.054-.807 1.153-2.075 2.708-2.824 3.4-1.498 1.44-2.938 1.844-1.844.519.519-.634.23-.865-1.613-1.153-1.21-.173-2.535-.749-2.939-1.21-.518-.634-1.268-.807-2.65-.519-3.919.75-4.553.173-8.24-7.145-1.844-3.688-3.573-7.376-3.804-8.182-.345-1.21-.115-1.153 1.441.749 2.535 2.996 4.725 4.033 6.627 3.169 2.477-1.152 1.498-2.939-3.17-5.82-2.247-1.44-4.321-5.186-4.84-8.759-.23-1.959-.115-1.786.807 1.038 1.325 4.206 2.478 5.935 4.782 7.318 2.363 1.44 3.919 1.44 5.82-.058 1.844-1.44 2.017-4.033.346-5.705-1.498-1.498-3.573-1.44-4.955.116-1.095 1.325-1.095 1.325.115.288 1.556-1.268 3.284-1.268 4.437.057 1.21 1.326 1.267 3.227.057 4.38-1.152 1.21-4.206 1.152-5.935 0-1.844-1.326-4.091-6.396-4.033-9.162 0-1.787.115-2.075.518-1.153.404.922.519.807.519-.864.057-2.074 1.21-4.725 1.21-2.824 0 1.73 2.305 3.976 3.976 3.976 2.881 0 4.552-3.054 2.535-4.667-.864-.75-.864-.692-.115.519 1.037 1.613.173 3.226-1.902 3.457-2.708.346-4.725-3.803-3.976-8.298.289-1.728.461-2.017.807-1.152.346.864.576.922 1.268.346.46-.404.864-1.326.864-2.075 0-1.325.058-1.383 1.383-.519 1.326.922 3.227.634 3.227-.403 0-.346-.403-.288-.922.115-.749.634-1.037.577-2.017-.403-.922-.922-1.095-1.556-.806-3.227.46-2.362 3.4-7.318 4.321-7.318.346 0 .519.23.346.519-.461.691.173 2.362.864 2.362.288 0 .519-.518.519-1.152 0-.634.346-1.153.807-1.153.46 0 .922-.403 1.152-.864.173-.461.807-.864 1.44-.864.635 0 1.326-.289 1.499-.577.173-.345.922-.576 1.556-.576.691 0 1.095-.115.98-.23-.635-.519-3.285-.75-4.841-.346m-14.52 47.942c1.152 2.478 1.958 4.495 1.785 4.495-.864 0-4.379-6.685-5.07-9.796-1.21-4.956-1.095-6.281.172-2.305.577 1.729 1.96 5.186 3.112 7.606m2.305 9.45c2.19 2.478 2.823 5.244 1.556 7.146-.519.749-.634.749-1.153 0-.288-.461-.576-1.787-.576-2.94 0-1.44-.519-2.765-1.729-4.263-.922-1.21-1.728-2.363-1.728-2.651 0-.23-.173-.922-.346-1.498-.173-.692.058-.576.75.403.575.807 2.016 2.536 3.226 3.803m-2.881 4.956c1.556 4.033 1.786 5.07 1.152 5.359-4.552 1.728-9.046-3.4-6.857-7.722.75-1.44 3.054-3.169 3.63-2.708 0 0 .98 2.305 2.075 5.07m2.074-1.67c0 1.21-.057 1.21-.518.115-.692-1.613-.692-2.132 0-1.729.345.173.576.922.518 1.614m-4.61 23.856c2.536 1.901 4.092 4.725 4.092 7.433 0 2.996-.922 3.688-4.898 3.688-3.342 0-5.935 1.325-6.396 3.227-.461 1.844-.23 2.017 2.88 2.362 4.322.519 6.512-.23 9.336-3.054 1.44-1.383 2.362-2.074 2.016-1.556-.749 1.383-3.457 3.919-5.186 4.783-.806.404-2.766.692-4.437.692-10.602-.116-14.578-11.986-5.992-17.863 2.42-1.614 6.108-1.499 8.585.288m8.183 9.796c-.692 1.152-.807.806-.288-.692.23-.519.518-.807.634-.634.172.115 0 .75-.346 1.326"/>
        <path d="M962.304 193.365c-.75.922-.692.98.23.23.922-.749 1.21-1.21.75-1.21-.116 0-.577.461-.98.98M419.324 581.57c-3.284 1.21-5.416 3.63-6.453 7.203-1.671 5.59-.173 10.833 7.433 26.564 4.38 8.932 7.376 16.135 8.125 19.246l.403 1.614-1.96-2.075c-5.128-5.416-13.77-5.877-19.418-1.037-3.17 2.65-4.61 5.647-4.61 9.508 0 8.586 8.528 14.406 15.558 10.66 3.803-2.074 5.878-5.301 5.878-9.162v-2.996l1.095 1.383c2.593 3.457 2.823 10.372.518 18.842l-1.21 4.495-3.4-.058c-3.053 0-3.63.173-5.243 1.787-3.4 3.4-2.65 9.22 1.44 10.89l1.902.807-1.152 4.206c-1.787 6.512-1.73 20.975.057 27.256 3.457 12.043 10.833 22.243 17.46 24.144 2.305.692 3.63.807 4.61.403 1.325-.518 1.325-.576.115-.576-.692-.057-1.44-.288-1.614-.634-.172-.288-.864-.576-1.498-.576s-1.267-.403-1.44-.864c-.23-.461-.692-.865-1.153-.865-.46 0-.806-.518-.806-1.152 0-.634-.231-1.152-.577-1.152-.288 0-.576.633-.576 1.44 0 1.671-.46 1.844-1.556.403-3.803-4.84-4.091-11.351-.403-10.141.98.288 1.037.288.115-.346-.749-.46-1.325-.46-2.19 0-1.037.576-1.267.403-1.786-1.095-.749-2.074-.98-2.132-2.074-.806-.692.921-.807.518-.634-3.112.23-4.552 1.325-6.512 3.63-6.512 1.44 0 2.305.865 2.766 2.594.23 1.094.288 1.037.346-.116.057-1.498-1.326-3.054-2.824-3.054-2.017 0-2.996.75-4.091 3.112l-1.037 2.305-.404-3.112c-.403-2.881-.518-2.996-.864-1.44l-.403 1.728-.058-2.074c-.23-7.203 5.244-13.311 9.796-10.89 1.325.748 1.498 3.572.173 4.84-1.095 1.094-3.17 1.21-4.264.23-.692-.634-.692-.576-.058.23 2.305 3.054 7.376-.806 5.705-4.379-1.21-2.766-4.552-3.17-7.895-.98-1.555.98-4.033 5.878-4.148 8.125-.058 1.095-.116 1.21-.346.346-.807-3.17 3.112-9.623 6.338-10.43 1.153-.288 3.804-3.572 3.17-3.976-.058-.057-.865-.403-1.671-.749-2.017-.864-4.783.519-6.973 3.515-2.535 3.458-1.67.922 2.593-7.606 3.803-7.549 4.437-8.125 7.895-7.376 1.21.23 2.305-.057 3.63-.806.98-.634 2.478-1.153 3.227-1.153 1.152 0 1.21-.115.634-.864-.577-.692-.577-.865 0-.865.403 0 1.555.922 2.535 2.075 5.301 6.108 5.993 6.626 7.779 5.474.692-.46.692-.807-.23-2.19-2.94-4.61-5.82-6.511-10.949-7.087l-3.457-.404 3.17-.057c7.432-.173 13.252 5.762 13.252 13.541 0 3.342-1.094 5.878-3.63 8.067-4.898 4.264-11.985 2.881-14.751-2.88-2.248-4.726-1.038-9.336 3.169-11.813 1.498-.922 1.786-1.21.807-.922-2.248.633-3.919 1.901-5.244 4.09-1.786 2.824-1.383 8.356.807 11.525 5.128 7.376 16.71 6.05 20.629-2.42.749-1.556 1.094-3.63 1.094-6.454 0-7.952-4.897-14.175-12.388-15.73-3.458-.75-7.549-.173-10.66 1.44-2.017 1.037-2.306 1.037-2.306.173 0-.346-.518-1.729-1.152-3.054l-1.152-2.42 1.44-3.342c2.478-5.59 3.746-11.986 3.746-19.016 0-7.894-1.268-13.599-5.186-24.26-4.553-12.273-5.763-16.134-6.339-20.916-.634-4.437-2.132-10.43-2.708-10.43-.865 0 .518 8.931 2.074 13.83.922 2.996 1.671 5.531 1.556 5.589-.115.115-1.152-2.305-2.363-5.417-4.667-12.1-2.88-19.188 4.84-19.188 4.265 0 7.146 3.976 6.166 8.47-.576 2.42-2.132 4.15-4.667 5.071-2.074.75-2.132.807-.691.865.864 0 2.362-.404 3.342-.865 5.359-2.823 5.416-12.734 0-15.5-2.536-1.326-5.82-1.614-8.356-.692m2.536 52.783c2.247 1.152 5.704 5.416 4.955 6.165-.173.173-.345.058-.345-.288 0-1.152-3.688-4.898-5.59-5.647-1.959-.864-5.877-1.037-8.067-.46-1.786.46-1.671 1.728.346 3.745 1.383 1.383 2.19 1.67 4.494 1.67 4.15 0 5.244.462 5.474 2.248.75 5.878-5.243 11.582-10.717 10.2-3.573-.865-6.685-5.244-6.685-9.278 0-3.457 2.882-7.49 6.339-8.874 2.535-.98 7.318-.749 9.796.519m.98 33.306c.576.345.345 1.44-.923 4.494-.864 2.19-1.786 4.437-1.959 5.014-.346.864-.576.922-1.67.345-.75-.403-1.614-1.095-2.018-1.613-1.037-1.325-.922-4.783.173-6.281 1.44-2.074 4.725-3.054 6.396-1.96m4.207 6.512c0 .461-.692 1.498-1.498 2.305-.865.75-2.42 2.65-3.458 4.264-1.095 1.556-1.959 2.708-1.959 2.536 0-1.268 1.556-4.495 2.766-5.82.922-1.038 1.44-2.305 1.556-3.803.173-3.343.922-4.207 1.786-2.133.403.98.75 2.133.807 2.651m-2.881-.173c0 .288-.404.98-.922 1.614-.461.576-.807.806-.634.518.115-.345.403-1.037.576-1.613.403-.98.98-1.325.98-.519m10.199 1.037c-.173.173-.692.231-1.095.058-.46-.173-.288-.346.346-.346.634-.057.98.116.749.288m-11.698 11.295c-.864 1.67-2.19 4.725-2.88 6.8-1.499 4.206-1.96 2.592-.577-2.018.807-2.535 4.38-8.586 4.84-8.067.116.058-.518 1.556-1.383 3.285M964.32 587.62c-3.169 1.901-4.264 3.86-4.264 7.49 0 5.014 2.478 8.24 6.973 9.047l1.959.288-2.42-1.094c-1.326-.634-2.766-1.787-3.285-2.536-4.38-6.684 2.478-14.463 8.932-10.084 4.494 3.054 4.61 8.01.403 19.016-.922 2.478-1.844 4.437-1.96 4.321-.114-.115.635-2.65 1.557-5.647 1.555-4.725 2.996-14.693 2.074-13.83-.807.75-2.19 5.82-2.478 8.932-.403 4.898-1.555 8.932-5.416 19.362-4.034 10.775-5.59 16.365-6.339 22.818-.864 7.722.577 16.653 4.034 24.663 1.037 2.478 1.037 2.535-.058 4.667-.576 1.21-1.095 2.651-1.095 3.227 0 .98-.172.98-2.42-.172-3.457-1.787-9.45-2.133-12.965-.807-3.284 1.267-6.742 4.321-8.413 7.433-1.037 1.96-1.267 3.342-1.267 7.894 0 5.014.115 5.705 1.555 7.895 2.305 3.457 6.108 5.474 10.488 5.532 4.264.057 6.742-1.21 9.22-4.725 1.958-2.766 2.65-7.664 1.498-10.488-.922-2.247-4.265-5.186-5.936-5.186-1.037 0-.922.173.75 1.037 4.264 2.132 5.646 6.685 3.514 11.41-1.959 4.321-6.396 6.511-10.717 5.359-5.36-1.441-8.24-5.878-7.607-11.698.75-7.548 5.647-12.1 13.08-12.1 2.075 0 4.265.287 4.899.69 1.037.635.922.635-.577.289-6.338-1.614-12.619.98-15.327 6.28-1.383 2.767-1.383 2.767.634 2.767 1.844 0 2.938-.865 5.186-4.15.749-1.152 2.19-2.535 3.169-3.11 1.556-.923 1.671-.923.922-.058-.634.864-.634.98.058.98.46 0 2.016.575 3.457 1.325 1.729.864 3.054 1.21 3.803.921.634-.23 1.902-.23 2.824 0 1.382.346 2.19 1.556 5.531 8.068 2.132 4.206 3.861 7.894 3.861 8.182 0 .288-1.268-.807-2.766-2.362-2.823-2.94-4.322-3.458-6.511-2.305-1.037.576-1.037.749-.288 2.247.46.864 1.613 1.96 2.535 2.305 3.515 1.498 6.511 6.166 6.396 9.969-.057 1.786-.115 1.786-.518-.519-1.095-5.474-4.437-8.99-8.24-8.701-3.17.23-4.956 2.478-3.919 4.956.404.922 1.383 1.959 2.132 2.362 2.248.98 2.42.75.346-.519-1.613-.98-1.902-1.44-1.729-2.996.116-1.325.634-2.132 1.787-2.766 1.44-.807 1.728-.749 3.687.288 2.94 1.556 4.726 4.956 5.071 9.566.173 2.42.116 3.054-.173 1.959-.46-1.614-.518-1.498-.98 1.44-.46 3.054-.46 3.112-.979 1.326-.518-1.96-2.88-4.207-4.494-4.207-2.42 0-3.803 3.803-1.844 5.244.806.634.864.634.288-.058-1.153-1.21-.865-3.342.403-4.033 1.671-.865 3.342-.23 4.322 1.728.98 1.844 1.21 8.068.288 8.068-.288 0-.576-.288-.576-.577 0-1.267-1.268-.46-1.787 1.153-.518 1.498-.749 1.613-1.728.98-1.21-.75-2.881-.116-3.285 1.382-.115.461.116.346.577-.288 1.21-1.555 2.996-.98 3.226 1.095.289 2.478-.749 5.474-2.708 7.78l-1.729 2.016-.057-1.902c0-.98-.23-1.843-.576-1.843-.289 0-.577.518-.577 1.152 0 .634-.345 1.152-.806 1.152-.461 0-1.038.52-1.21 1.153-.23.634-.577 1.037-.865.864-.576-.345-4.033 1.21-4.033 1.844 0 .173 1.325.173 2.996 0 7.549-.922 15.097-10.257 19.304-23.856 1.44-4.667 1.555-5.877 1.498-14.29 0-7.26-.23-10.142-1.153-13.657l-1.152-4.437 1.613-.576c2.017-.691 3.976-3.745 3.976-6.108 0-2.132-1.786-5.128-3.572-6.108-.75-.403-2.65-.691-4.322-.691l-2.996.057-.865-2.939c-2.823-10.084-2.708-16.653.288-20.11 1.153-1.325 1.153-1.325.807-.058-.98 3.515 2.997 9.854 7.03 11.18 3.227 1.036 7.376.403 9.854-1.614 8.124-6.454 5.3-18.843-5.014-21.84-5.243-1.555-9.795-.345-14.002 3.689-1.21 1.152-2.19 1.901-2.19 1.728 0-1.383 3.861-10.66 8.99-21.55 8.067-17.172 9.104-22.3 5.82-28.178-2.478-4.437-9.278-6.339-13.427-3.803m15.674 51.86c5.128 2.363 7.26 8.01 4.898 12.965-3.688 7.549-13.945 6.281-16.192-1.959-.404-1.44-.404-2.708 0-3.688.46-1.325.864-1.498 3.457-1.498 3.457 0 6.57-1.152 7.433-2.766.98-1.786.807-2.247-1.152-2.939-4.38-1.498-9.162.116-11.986 4.034-.98 1.325-1.786 2.19-1.786 1.844 0-1.037 4.264-5.532 5.993-6.281 2.535-1.095 6.569-.98 9.335.288m-5.244 34.92c1.095 1.037 1.44 2.016 1.44 3.745s-.345 2.708-1.44 3.746c-.749.806-1.729 1.44-2.132 1.44-.75 0-4.552-9.565-4.034-10.084.173-.173 1.326-.288 2.536-.288 1.613 0 2.65.403 3.63 1.44m-6.915 4.15c.807 1.786 1.326 3.342 1.21 3.514-.172.116-.691-.633-1.152-1.67-.461-1.095-.864-1.614-.864-1.21-.058.979.922 2.938 2.247 4.436.864.98 2.535 4.898 2.074 4.898-.057 0-1.152-1.44-2.362-3.169-1.21-1.786-2.65-3.457-3.285-3.803-.576-.288-1.037-1.037-1.037-1.614 0-1.152 1.153-4.667 1.498-4.667.116 0 .922 1.44 1.671 3.284m1.902 12.447c1.729 2.478 3.573 7.664 3.515 9.854 0 .691-.576-.346-1.325-2.248-1.095-2.823-2.94-7.03-4.265-9.68-.115-.23-.057-.404.116-.404.173 0 1.037 1.095 1.959 2.478"/>
        <path d="M964.032 709.09c-.749.922-.691.98.23.23.923-.749 1.21-1.21.75-1.21-.115 0-.576.461-.98.98m-532.607 13.83c-.346.806-.288.863.288.345.404-.404.576-.864.404-1.037-.173-.173-.519.115-.692.691m-9.796 10.603c-.806.98-1.498 1.44-1.498 1.095 0-1.095-3.803-2.363-5.416-1.787-1.73.692-3.227 2.766-3.227 4.495 0 .98-.346 1.325-1.153 1.325-2.766 0-5.013 4.437-3.515 6.857.404.577.173 1.326-.576 2.248-1.498 1.959-1.383 4.494.288 6.165.864.865 1.153 1.614.864 2.132-.98 1.498-.518 3.458 1.21 5.186 1.441 1.44 2.133 1.729 3.63 1.44 1.614-.23 2.018-.057 2.824 1.384 1.729 2.939 5.763 3.342 7.606.749.577-.75.922-.75 2.593-.058 1.038.461 2.536.692 3.285.519 2.074-.403 3.86-2.881 3.515-4.956-.173-1.325.115-2.016 1.383-3.111 2.362-1.96 2.305-4.84-.058-7.03-1.21-1.153-1.728-2.132-1.728-3.4 0-1.21-.519-2.363-1.499-3.342-1.21-1.21-1.786-1.383-3.687-1.095-1.556.23-2.363.115-2.882-.519-.46-.518-1.728-.864-3.169-.864-2.074 0-2.766.288-3.976 1.786-.807.98-1.498 2.19-1.498 2.766 0 .519-.519 1.96-1.095 3.17-1.383 2.65-.749 5.128 1.671 6.396.922.46 1.787 1.383 2.017 2.016.519 1.614 3.4 2.997 5.186 2.536 1.786-.461 3.746-2.824 3.746-4.552 0-1.96-.577-2.075-2.478-.519-3.054 2.535-7.318.75-7.318-3.054 0-4.495 3.054-6.972 7.664-6.28 7.721 1.152 9.22 12.215 2.19 16.364-2.133 1.21-3.343 1.556-6.109 1.556-5.704-.058-10.026-3.342-11.582-8.816-3.112-10.66 6.223-20.11 17.69-17.979 1.671.346 3.112.461 3.285.288.518-.46-1.21-3.803-2.248-4.321-2.074-1.153-4.379-.634-5.935 1.21m10.603 5.416c0 .173.922 1.44 2.017 2.881 2.362 3.112 4.321 9.047 4.321 13.08 0 2.651.116 2.824.98 2.133 2.593-2.19 2.823-6.627.403-8.528-1.095-.865-1.383-1.614-1.383-3.803 0-3.4-.691-4.61-2.938-5.417-1.96-.691-3.4-.807-3.4-.346m529.265 1.153c-2.363 2.305-1.902 2.939 2.19 2.996 10.717.115 17.92 9.623 14.52 19.13-2.823 8.126-11.927 11.122-18.67 6.167-2.996-2.248-3.802-3.746-3.802-7.319 0-6.338 4.61-10.314 10.026-8.643 2.939.864 4.667 3.054 4.667 5.82 0 3.112-1.498 4.725-4.321 4.725-1.844 0-2.593-.346-3.803-1.844-1.268-1.498-1.614-1.613-1.902-.864-.691 1.901-.288 3.803 1.095 5.186 1.959 2.017 4.494 1.901 6.742-.288.922-.98 2.074-1.729 2.535-1.729 1.614 0 3.112-2.247 3.112-4.552 0-1.268-.23-2.478-.576-2.65-.289-.174-.577-1.384-.577-2.651 0-3.112-1.959-5.129-5.07-5.129-1.21 0-2.478.288-2.824.634-.461.46-.98.46-1.786 0-.634-.346-1.729-.634-2.42-.634-1.672 0-4.61 3.054-4.61 4.725 0 .922-.519 1.556-1.671 2.075-2.305.98-3.342 3.572-2.363 5.877.403.98 1.095 1.96 1.556 2.19.634.403.691.806.23 2.017-.691 1.786-.345 3.054 1.268 4.84 1.21 1.383 4.61 1.844 5.301.749.519-.807 1.441-.691 1.441.173 0 1.44 2.305 2.939 4.437 2.939 1.498 0 2.42-.404 3.342-1.499 1.095-1.325 1.613-1.44 3.86-1.21 3.343.404 5.072-1.094 5.072-4.206 0-1.556.403-2.478 1.728-3.688 1.96-1.786 2.19-3.688.807-5.647-.864-1.21-.864-1.44 0-2.363 1.383-1.555 1.152-4.494-.519-6.108-.749-.806-1.728-1.44-2.19-1.44-.518 0-.69-.576-.518-1.96.403-3.572-3.688-6.05-6.915-4.206-1.325.75-1.613.75-1.613.115 0-1.21-2.881-3.169-4.725-3.169-.98 0-2.247.576-3.054 1.44m-8.24 4.15c-1.671.345-2.824 2.132-3.342 5.186-.23 1.383-.634 2.477-.922 2.477-.288 0-1.153.634-1.902 1.441-1.67 1.613-1.901 4.84-.576 7.203.864 1.556.749 1.67 2.017-2.881 1.095-3.976 2.708-6.857 5.935-10.2 1.556-1.67 2.593-3.054 2.247-3.054-.346 0-.922-.115-1.383-.23-.403-.115-1.325-.058-2.074.058m-88.74 8.7c-4.09 1.499-6.972 3.919-8.873 7.607-2.075 3.86-2.247 9.796-.461 13.772 1.383 2.996 1.44 3.515.23 3.515-.518 0-1.844.46-2.938.98-1.73.806-2.305.864-3.861.23-16.25-6.627-26.334-6.166-48.691 2.19-9.335 3.514-15.731 5.243-19.477 5.243-1.21.058-3.63.519-5.359 1.153-2.939.98-3.054 1.094-1.613 1.44 1.901.519 9.623-1.037 14.751-2.88 6.166-2.248 4.783-1.211-1.844 1.382-9.968 3.918-15.558 3.688-18.208-.634-2.075-3.4-1.038-8.182 2.132-9.623 3.976-1.844 8.7-.115 10.314 3.803.98 2.305 1.556 2.478 1.037.288-.691-2.823-2.19-4.725-4.552-5.877-6.511-3.112-12.965.807-12.965 7.894 0 3.458.864 5.474 3.284 7.78 2.19 2.074 4.207 2.765 8.183 2.765 4.783 0 8.125-1.152 21.839-7.606 17.46-8.125 23.74-10.372 19.707-7.03-7.145 6.05-5.474 18.727 2.996 22.934 4.898 2.42 9.335 1.729 13.484-2.075 2.881-2.65 3.918-5.3 3.515-8.873-.519-4.898-4.495-8.702-9.738-9.393l-3.054-.461 2.593-1.21c3.515-1.671 10.084-1.671 16.71.115 4.84 1.268 4.898 1.268 4.725 2.997-.23 2.996.461 5.358 2.248 7.145 1.498 1.44 2.19 1.728 4.494 1.728 3.112 0 5.532-1.44 6.454-3.86.288-.807.864-1.326 1.268-1.153 3.4 1.268 11.351 2.363 17.69 2.363 8.874-.058 14.463-1.326 22.76-5.417 6.34-3.111 11.064-6.857 13.254-10.602 1.498-2.593 2.593-7.837 1.614-7.837-.577 0-1.902 2.478-1.902 3.457 0 .807-1.844 2.593-3.227 3.112-.98.46-.922.576.576 1.21l1.671.691-2.42 1.787c-4.206 3.054-8.7 3.17-8.7.288 0-1.268.23-1.44 1.497-1.153.922.173 1.268.058.922-.288-1.67-1.67-3.976 1.383-2.477 3.227.518.634.288.865-1.095 1.095-1.844.403-2.42 2.074-.692 2.19.519 0 .23.288-.749.576-5.359 1.729-11.755-2.363-8.586-5.474.461-.519.634-.922.23-.922-.345 0-.921.634-1.267 1.44-.807 1.844.115 4.092 2.132 5.014 1.787.806 1.844 1.613.173 1.613-.749 0-1.729.288-2.19.576-.691.461-.691.576.289.634.633 0 .864.173.46.288-1.094.461-7.606-1.383-9.392-2.65-3.17-2.248-3.688-6.858-.864-8.183 1.095-.518 1.67-.403 2.88.346 1.73 1.152 2.018 3.976.462 4.898-.576.346-.75.634-.404.634 2.075.057 2.651-3.919.807-5.763-2.478-2.477-6.396-.691-6.511 3.054-.115 3.746 3.169 6.742 9.047 8.298l2.938.75-2.766-.289c-4.667-.46-7.894-2.593-9.853-6.511-.922-1.787-3.457-3.573-4.091-2.881-.173.172-.461 1.21-.692 2.304-.288 1.844 0 2.305 2.248 4.726 1.44 1.44 2.304 2.65 1.959 2.65-.288 0-3.803-1.613-7.722-3.63-7.664-3.86-8.586-4.783-7.894-8.298.23-1.267 0-2.362-.864-3.745-.634-1.037-1.153-2.536-1.153-3.285 0-1.21-.115-1.267-.98-.576-.864.75-.864.691-.23-.519.403-.749 2.017-2.247 3.573-3.4 3.054-2.189 3.976-3.4 3.976-5.3 0-1.556-.807-1.499-3.803.23-4.668 2.708-6.8 8.874-5.244 14.982.346 1.556.346 1.613-.288.576-.404-.634-.75-2.996-.75-5.244 0-3.515.231-4.437 1.73-6.857 2.477-3.918 6.51-6.108 11.409-6.165 7.433-.058 11.582 4.552 10.602 11.812-.403 3.054-3.745 6.339-7.375 7.318-2.133.577-2.882.519-5.071-.403-1.614-.634-3.17-1.844-3.919-2.996-.749-1.153-1.325-1.556-1.325-1.038 0 1.383 2.881 4.495 5.013 5.36 4.15 1.786 9.393.345 12.677-3.458 2.305-2.535 2.709-3.976 2.363-8.413-.634-8.643-9.68-13.714-18.785-10.487m-43.102 27.89c-3.342 2.362-4.552 4.84-4.552 9.161 0 4.322.518 5.244 2.42 4.495 2.017-.75 3.112-2.997 3.284-6.857.173-4.15.75-4.783 4.322-4.437 4.38.46 7.549 3.803 7.952 8.297.576 6.454-6.454 11.122-12.735 8.356-5.243-2.363-7.721-9.681-5.013-14.925 1.153-2.247 4.322-5.359 5.532-5.359.288 0-.23.577-1.21 1.268m39.01.807c1.038 1.152 2.709 2.42 3.573 2.939.922.46 1.556.98 1.383 1.094-.46.461-3.4-.922-5.128-2.362-1.153-.98-2.42-1.44-3.803-1.44-2.882 0-4.092-.807-2.651-1.672 2.19-1.267 4.494-.749 6.627 1.44m16.192 5.13c4.667 1.555 3.745 1.9-1.556.576-2.997-.807-9.508-4.322-9.508-5.187 0-.172 1.556.461 3.4 1.441 1.901.922 5.359 2.363 7.664 3.17m-17.633-3.4c1.095.864 1.095.864-.058.345a42.222 42.222 0 0 0-2.016-.864c-.75-.288-.75-.346.057-.346.461-.057 1.383.346 2.017.865m-2.881 1.498c2.65.98 4.84 2.074 4.84 2.305 0 .288-.749 1.325-1.67 2.247-2.71 2.708-6.743 1.96-8.414-1.556-.807-1.729-.691-4.84.173-4.84.173 0 2.478.807 5.07 1.844m-408.199-30.425c-2.362.98-3.515 1.959-4.84 4.033-.98 1.499-1.671 2.824-1.498 2.997.403.403 5.877-2.017 6.338-2.824.23-.403 1.095-1.786 1.902-3.169.806-1.325 1.44-2.42 1.325-2.42-.115.058-1.556.634-3.227 1.383m61.714.403c-3.227.75-7.318 4.437-8.586 7.722-1.44 3.803-.922 8.355 1.268 11.12 5.647 7.03 16.653 5.878 18.44-1.958.23-1.268 0-1.037-.98.922-3.227 6.108-11.64 5.82-15.904-.519-2.824-4.149-.864-10.603 3.918-13.196 3.63-1.959 9.047-1.67 12.965.75 3.746 2.304 5.993 6.569 5.936 11.178 0 1.787-.173 3.688-.404 4.207-.23.576-.403-1.153-.403-3.803 0-4.207-.173-5.013-1.556-7.146-1.844-2.765-6.684-5.877-7.318-4.782-.864 1.383.115 3.572 2.19 5.07 2.996 2.19 5.243 4.322 5.243 4.956 0 .288-.403.23-.864-.173-.75-.634-.864-.46-.864.922 0 .922-.519 2.478-1.095 3.458-.807 1.267-1.037 2.477-.865 4.321.173 1.383.058 2.824-.172 3.17-.52.749-12.274 6.742-14.579 7.433-1.383.461-1.383.403.346-1.21 2.708-2.536 3.86-5.129 3.054-6.742-.346-.691-.75-1.325-.807-1.44-.519-.577-3.688 1.786-3.976 2.938-.807 3.285-6.627 6.8-11.006 6.684-1.21 0-.807-.23 1.44-.749 1.73-.345 3.688-.98 4.322-1.325 2.19-1.21 4.38-4.034 4.725-6.108.23-1.671.058-2.305-1.152-3.515-.864-.807-2.017-1.498-2.593-1.498-1.614 0-4.149 2.19-4.149 3.515 0 1.498 1.037 3.4 1.786 3.4.346 0 .173-.404-.288-.922-1.844-1.844-.518-5.014 2.132-5.014 3.803 0 4.553 4.207 1.383 7.376-2.017 2.017-6.8 3.803-9.853 3.688l-1.787-.058 1.73-.403 1.728-.403-1.96-.404c-1.037-.23-2.592-.403-3.457-.403-1.267-.058-1.152-.173.807-.864 1.268-.461 2.593-1.268 2.996-1.844 1.441-1.902.577-5.417-1.267-5.36-.288 0-.116.289.46.635.577.345.98 1.267.98 2.305 0 1.267-.46 1.959-1.844 2.823-2.016 1.21-6.453 1.556-7.952.576-.749-.46-.691-.576.173-.576.519 0 .98-.23.98-.576 0-.865-1.902-1.614-5.705-2.247-3.457-.577-6.684-2.075-8.125-3.804-.576-.691-.518-.864.461-.864.692 0 1.383-.288 1.556-.576.173-.346.115-.576-.173-.576-1.152 0-3.342-2.766-4.149-5.186l-.864-2.593-.173 2.765c-.23 3.573 1.96 7.664 5.935 11.18 3.573 3.169 12.85 7.778 19.016 9.45 7.837 2.19 23.683 1.613 30.54-.98.519-.23.864 0 .864.518 0 1.614 2.766 4.265 4.84 4.668 2.363.46 5.302-.634 6.973-2.536.864-.98 1.152-2.074 1.152-4.667v-3.4l2.882-.806c8.297-2.42 14.578-2.766 18.496-.98 3.055 1.383 3.804 2.478 1.383 2.017-4.033-.865-9.623 3.111-10.89 7.664-.807 2.938-.807 3.86.288 6.396 3.515 8.528 14.406 10.199 20.456 3.054 4.955-5.763 4.495-14.81-.98-19.65-1.094-.922-1.728-1.728-1.383-1.728 1.614 0 8.932 2.996 19.304 7.952 6.339 2.996 13.369 6.05 15.558 6.857 7.434 2.535 14.348 1.556 17.46-2.42 4.322-5.475 2.132-13.657-4.034-15.27-5.474-1.499-11.467 2.304-11.351 7.202.057 1.73.057 1.73.46.23 1.21-3.917 3.516-5.704 7.261-5.704 4.091 0 6.569 2.363 6.627 6.223.057 8.356-8.586 9.912-21.378 3.861-3.458-1.613-3.343-1.613 3.457.519 5.417 1.729 12.735 2.65 12.735 1.556 0-.346-.577-.634-1.268-.634-.75-.058-1.96-.404-2.766-.865-.807-.46-2.708-.864-4.322-.864-4.264-.058-8.816-1.268-19.36-5.244-14.119-5.3-18.901-6.396-27.602-6.453-7.606-.058-12.101.806-19.477 3.86-3.284 1.326-3.342 1.326-5.301.23-1.095-.575-2.478-1.036-3.054-1.036-.807 0-.98-.23-.692-1.038.289-.518.98-2.42 1.614-4.148 2.65-7.491-1.037-15.79-8.47-19.074-2.997-1.267-8.01-1.728-11.122-1.037m19.822 27.66c1.499.575 1.556.633.577 1.382-.577.404-1.556.634-2.19.461-1.268-.346-4.552.864-4.552 1.671 0 .519-3.515 2.19-4.668 2.19-.403 0 .461-.75 1.844-1.671 1.383-.98 3.17-2.363 3.919-3.17 1.555-1.613 2.593-1.843 5.07-.864m35.669 2.363c2.074 2.247 2.708 4.033 2.708 7.375 0 4.668-2.65 8.817-6.684 10.315-5.128 1.96-11.467-1.671-12.331-7.088-.692-4.379 3.457-9.335 8.355-9.968 3.17-.404 4.149.749 4.149 4.898 0 3.515.864 5.358 2.996 6.51 1.786.98 2.766-.69 2.766-4.494 0-3.572-1.44-6.914-3.86-8.758-.865-.692-1.095-1.038-.462-.692.634.288 1.73 1.153 2.363 1.902m-47.885.46c-1.21 1.96-9.046 5.244-12.33 5.13-1.038 0-.52-.347 1.67-1.038 1.729-.576 4.84-1.844 6.915-2.824 4.437-2.074 4.206-2.016 3.745-1.267m10.027-.346c-.115.115-.865.519-1.671.864-1.383.634-1.383.634-.346-.173.922-.749 2.823-1.382 2.017-.691m6.108 1.498c1.556 4.898-4.495 8.932-8.586 5.705-2.593-2.017-1.96-2.997 2.996-4.956 5.475-2.19 5.129-2.132 5.59-.749m403.07-30.655c0 .288.52 1.728 1.153 3.111.807 1.844 1.96 3.17 3.861 4.38 1.498.98 2.824 1.67 2.939 1.556.403-.404-1.729-5.417-2.708-6.224-1.787-1.498-5.244-3.4-5.244-2.823m-499.705 7.145c-2.535.519-2.708.692-3.803 3.515-.634 1.671-1.037 3.112-.98 3.17.116.115 1.614-.116 3.285-.462 2.997-.691 3.17-.806 4.091-3.457.519-1.498.98-2.881.98-3.112 0-.403.058-.403-3.573.346m9.623.403-2.305 1.038 3.112.691c4.264.922 9.393 3.746 12.159 6.742 1.267 1.383 2.477 2.535 2.593 2.535.172 0 .288-1.037.288-2.305 0-3.054-1.44-4.437-5.129-4.955-2.42-.288-2.88-.576-3.227-1.786-.173-.865-1.037-1.73-2.305-2.248-2.42-.98-2.362-.98-5.186.288m485.357 2.94c-1.44 1.497-2.132 1.728-4.84 1.728-3.343 0-4.553.98-4.956 4.033-.23 1.787.403 1.672 3.688-.518 2.939-2.017 6.972-3.4 11.697-3.976l3.458-.461-2.017-1.268c-2.824-1.786-4.898-1.613-7.03.461m-523.676.807c-.806 2.19.346 4.898 2.478 5.82l1.729.749-1.383.403c-3.4 1.037-5.186 4.38-3.803 7.145.691 1.441.691 1.73-.288 2.882-2.363 2.938-.116 7.548 3.687 7.548 1.038 0 2.248-.23 2.651-.518.461-.288 1.614 0 2.996.633 1.96.98 2.363 1.038 4.15.289 1.037-.461 2.247-1.499 2.708-2.305l.806-1.499.922 1.844c1.21 2.42 3.688 3.63 5.59 2.766 1.728-.749 1.786-2.477.115-3.227-1.153-.518-1.325-.98-1.325-3.745.057-1.729.23-4.725.46-6.627l.462-3.457-1.441 2.881c-2.19 4.322-5.359 7.78-8.643 9.277-3.573 1.671-5.244 1.73-7.722.23-3.284-2.016-3.86-5.589-1.556-9.565 1.844-3.169 5.705-5.82 10.891-7.49l4.091-1.326-4.898-.057c-6.28 0-9.104-.75-9.335-2.478-.288-1.902-2.593-2.075-3.342-.173m537.217-.461c.173.634.519 2.074.75 3.284.345 2.19 1.152 2.824 5.358 4.15 1.268.403 1.326.287.922-2.075-.576-3.573-1.095-4.264-3.572-5.071-1.21-.403-2.536-.864-2.997-1.037-.518-.23-.634 0-.46.749m-501.319 3.342c-1.267 1.037-1.901 1.268-2.65.807-1.383-.75-4.092-.058-5.302 1.267-1.095 1.21-1.325 3.458-.576 5.59.288.98.173 1.325-.46 1.325-1.326 0-2.71 2.247-2.71 4.38 0 1.382.462 2.247 1.73 3.342 1.555 1.267 1.67 1.613 1.152 2.65-.864 1.614-.173 4.437 1.325 5.474.692.461 2.132.865 3.17.865 1.382 0 2.304.403 3.054 1.383 1.44 1.844 3.572 2.305 5.647 1.267 1.44-.749 1.786-.749 2.708-.057.634.46 1.786.864 2.593.864 1.901 0 4.552-2.017 4.552-3.457 0-.922.346-1.037 1.902-.75 2.708.404 5.013-1.555 5.013-4.206 0-1.152-.23-2.478-.576-3.054-.404-.806-.23-1.21.864-1.786.749-.403 1.671-1.498 2.074-2.363 1.095-2.708-.922-6.28-3.63-6.28-.519 0-.691.806-.576 3.054.46 6.972-4.61 13.944-11.121 15.442-6.166 1.383-12.735-1.44-15.213-6.51-3.227-6.8.577-15.732 7.03-16.423 5.532-.634 10.2 2.823 10.2 7.606 0 3.284-.98 5.359-2.94 6.396-5.646 2.881-10.832-2.996-6.28-7.26 1.901-1.787 1.729-2.305-.865-2.305-4.09 0-5.935 4.897-2.996 7.951.864.922 1.556 1.96 1.556 2.363 0 1.498 2.766 3.515 4.84 3.515 1.095 0 2.19-.288 2.363-.576.173-.346 1.325-.576 2.535-.576 4.264 0 6.857-3.861 5.071-7.491-.519-.98-.634-1.844-.346-2.075.288-.173.519-1.325.519-2.535 0-1.729-.346-2.478-1.498-3.4-.865-.691-2.132-1.21-2.94-1.21-.921 0-1.555-.461-1.9-1.383-.635-1.729-2.709-3.227-4.38-3.227-.75 0-2.017.634-2.939 1.383m489.967 2.132c-.807.634-1.499 1.556-1.499 1.96 0 .575-.518.69-2.016.46-1.672-.288-2.248-.057-3.746 1.498-1.613 1.614-1.786 2.075-1.44 3.976.288 1.671.115 2.42-.52 2.997-.575.403-.921 1.613-.921 2.996 0 2.708 2.017 5.071 4.322 5.071.864 0 2.19.519 2.996 1.152.807.634 2.19 1.153 2.996 1.153 1.499 0 4.092-1.786 4.092-2.881 0-.288.749-.98 1.728-1.498 4.553-2.709 3.054-8.874-2.19-8.874h-1.959l1.556 1.844c1.268 1.498 1.498 2.247 1.21 3.86-.576 3.688-3.745 5.071-7.318 3.17-3.4-1.73-4.206-7.03-1.613-10.66 1.556-2.19 3.976-2.997 8.067-2.709 3.227.23 3.746.461 5.474 2.305 4.034 4.437 4.091 11.236.058 15.846-2.478 2.824-5.647 4.207-9.969 4.207-6.166 0-11.179-3.458-13.196-9.278-.98-2.708-1.152-8.355-.288-10.545.519-1.382.404-1.498-.922-1.498-.806 0-2.074.634-2.823 1.44-1.902 1.845-1.902 4.495 0 6.397 1.325 1.325 1.383 1.556.576 2.708-2.074 2.939-.058 7.318 3.342 7.318 1.095 0 1.556.288 1.556 1.038 0 2.88 3.688 5.243 6.454 4.09 1.325-.518 1.844-.518 2.65.174.519.46 1.441 1.037 1.96 1.21 1.267.46 4.321-.576 4.667-1.556.23-.519 1.152-.692 3.17-.461 2.535.23 2.938.115 4.09-1.383.922-1.21 1.268-2.19 1.095-3.573-.173-1.613 0-2.016 1.038-2.42 1.613-.634 3.111-2.766 3.111-4.38 0-.748-.634-2.074-1.498-3.053-1.383-1.671-1.383-1.786-.461-3.17 1.844-2.823-.519-6.684-4.034-6.684-1.44 0-2.477-.46-3.687-1.728-2.075-2.017-3.976-2.19-6.108-.519"/>
        <path d="M424.28 773.109c-4.149 1.498-4.322 1.613-5.993 4.898-.922 1.901-1.556 3.515-1.44 3.687.172.116 2.074-.23 4.206-.806 3.918-1.037 3.976-1.037 6.108-4.783 3.112-5.359 3.227-5.244-2.881-2.996m548.453 2.65c0 2.305-2.362 2.42-13.253.577-.864-.173-.46.23 1.095.922 6.569 3.054 11.582 8.758 11.582 13.253 0 4.437-3.918 7.548-8.125 6.338-4.437-1.267-7.894-5.531-10.026-12.216l-1.325-4.206-.058 5.762c-.058 6.339-.807 8.528-2.824 8.816-.98.173-1.267.519-1.152 1.383.23 1.729 1.671 2.42 4.149 1.96 1.728-.346 2.305-.807 2.939-2.248l.749-1.844.634 1.556c1.267 3.342 4.725 4.84 7.606 3.285.922-.461 1.44-.404 2.305.403 1.555 1.44 4.264 1.268 5.992-.346 1.96-1.844 2.248-3.169 1.21-5.243-.864-1.672-.806-1.902.231-3.285 1.786-2.247 1.44-4.034-1.152-6.569-2.248-2.074-2.305-2.19-.922-2.19 2.477 0 4.436-3.457 3.457-5.992-.461-1.153-3.112-1.21-3.112-.116m-77.214 0c0 .116.46.577 1.037.98.864.749.922.691.173-.23-.75-.923-1.21-1.21-1.21-.75m-416.728 1.499c1.383.576 1.671 1.67.576 2.765-.518.519-.518.692-.057.692 1.037 0 1.498-2.247.749-3.17-.404-.46-1.153-.864-1.671-.806-.634 0-.519.173.403.519"/>
        <path d="M954.352 777.085c0 .288.691 2.42 1.613 4.782 1.498 4.207 1.671 4.38 5.013 6.166 1.844 1.037 3.573 1.902 3.746 1.902.173 0-.173-1.902-.807-4.265l-1.152-4.206-3.919-2.42c-4.149-2.478-4.552-2.65-4.494-1.96m-467.09 1.326c-.173.346.057.403.518.23 1.037-.403 1.21-.806.404-.806-.346 0-.75.23-.922.576m-82.69 12.504c-.979.346-2.304 1.844-2.304 2.593 0 .75 2.132.519 2.708-.288.807-.98 1.383-2.708.865-2.65-.23 0-.807.172-1.268.345m569.14 10.545c.346 1.21 2.823 3.285 3.4 2.766.403-.461-.807-3.342-1.441-3.342-.288 0-.922-.173-1.383-.346-.691-.23-.807 0-.576.922"/>
    </g>
    <rect fill="white" fill-opacity="0.2" stroke="#ccc" stroke-width="2" x="546" y="212" width="300" height="50" rx="10"/>
    <rect fill="white" fill-opacity="0.2" stroke="#ccc" stroke-width="2" x="546" y="302" width="300" height="50" rx="10"/>
    <rect fill="white" fill-opacity="0.2" stroke="#ccc" stroke-width="2" x="546" y="392" width="300" height="50" rx="10"/>
    <rect fill="white" fill-opacity="0.2" stroke="#ccc" stroke-width="2" x="546" y="482" width="300" height="50" rx="10"/>
    <rect fill="white" fill-opacity="0.2" stroke="#ccc" stroke-width="2" x="546" y="572" width="300" height="50" rx="10"/>

    <g fill="#ddd" font-family="Luckiest Guy" font-size="38px">
        <text x="614" y="250">Continue</text>
        <text x="654" y="340">Load</text>
        <text x="650" y="430">Save</text>
        <text x="618" y="520">Settings</text>
        <text x="654" y="610">Quit</text>
        <text font-size="30px" x="568" y="700">Score:</text>
        <text font-size="30px" x="758" y="700">/480</text>
    </g>
</svg>
