<svg xmlns="http://www.w3.org/2000/svg" width="1392" height="912" viewBox="0 0 1392 912">
    <defs>
        <filter id="shadow">
            <feGaussianBlur in="SourceAlpha" stdDeviation="10"/>
            <feOffset dy="5"/>
            <feBlend in="SourceGraphic" in2="blurOut"/>
        </filter>
        <filter id="background-filter" x="0%" y="0%" width="100%" height="100%" color-interpolation-filters="sRGB" filterUnits="objectBoundingBox" primitiveUnits="userSpaceOnUse">
            <feTurbulence width="100%" height="100%" x="0%" y="0%" baseFrequency="0.004 0.003" numOctaves="2" result="turbulence" seed="156" stitchTiles="stitch" type="fractalNoise"/>
            <feGaussianBlur width="100%" height="100%" x="0%" y="0%" in="turbulence" result="blur" stdDeviation="34 31"/>
            <feBlend width="100%" height="100%" x="0%" y="0%" in="SourceGraphic" in2="blur" mode="color" result="blend"/>
        </filter>
    </defs>
    <rect fill="#5a818a" width="1392" height="912"/>
    <rect fill="#5a575f" filter="url(#shadow)" x="60" y="60" width="785" height="785"/>
    <rect fill="#5a575f" filter="url(#background-filter)" x="60" y="60" width="785" height="785"/>
    <path transform="translate(60,60)" fill="white" fill-opacity="0.4" d="M0 0v785h785V0zm1 1h48v48H1zm49 0h48v48H50zm49 0h48v48H99zm49 0h48v48h-48zm49 0h48v48h-48zm49 0h48v48h-48zm49 0h48v48h-48zm49 0h48v48h-48zm49 0h48v48h-48zm49 0h48v48h-48zm49 0h48v48h-48zm49 0h48v48h-48zm49 0h48v48h-48zm49 0h48v48h-48zm49 0h48v48h-48zm49 0h48v48h-48zM1 50h48v48H1zm49 0h48v48H50zm49 0h48v48H99zm49 0h48v48h-48zm49 0h48v48h-48zm49 0h48v48h-48zm49 0h48v48h-48zm49 0h48v48h-48zm49 0h48v48h-48zm49 0h48v48h-48zm49 0h48v48h-48zm49 0h48v48h-48zm49 0h48v48h-48zm49 0h48v48h-48zm49 0h48v48h-48zm49 0h48v48h-48zM1 99h48v48H1zm49 0h48v48H50zm49 0h48v48H99zm49 0h48v48h-48zm49 0h48v48h-48zm49 0h48v48h-48zm49 0h48v48h-48zm49 0h48v48h-48zm49 0h48v48h-48zm49 0h48v48h-48zm49 0h48v48h-48zm49 0h48v48h-48zm49 0h48v48h-48zm49 0h48v48h-48zm49 0h48v48h-48zm49 0h48v48h-48zM1 148h48v48H1zm49 0h48v48H50zm49 0h48v48H99zm49 0h48v48h-48zm49 0h48v48h-48zm49 0h48v48h-48zm49 0h48v48h-48zm49 0h48v48h-48zm49 0h48v48h-48zm49 0h48v48h-48zm49 0h48v48h-48zm49 0h48v48h-48zm49 0h48v48h-48zm49 0h48v48h-48zm49 0h48v48h-48zm49 0h48v48h-48zM1 197h48v48H1zm49 0h48v48H50zm49 0h48v48H99zm49 0h48v48h-48zm49 0h48v48h-48zm49 0h48v48h-48zm49 0h48v48h-48zm49 0h48v48h-48zm49 0h48v48h-48zm49 0h48v48h-48zm49 0h48v48h-48zm49 0h48v48h-48zm49 0h48v48h-48zm49 0h48v48h-48zm49 0h48v48h-48zm49 0h48v48h-48zM1 246h48v48H1zm49 0h48v48H50zm49 0h48v48H99zm49 0h48v48h-48zm49 0h48v48h-48zm49 0h48v48h-48zm49 0h48v48h-48zm49 0h48v48h-48zm49 0h48v48h-48zm49 0h48v48h-48zm49 0h48v48h-48zm49 0h48v48h-48zm49 0h48v48h-48zm49 0h48v48h-48zm49 0h48v48h-48zm49 0h48v48h-48zM1 295h48v48H1zm49 0h48v48H50zm49 0h48v48H99zm49 0h48v48h-48zm49 0h48v48h-48zm49 0h48v48h-48zm49 0h48v48h-48zm49 0h48v48h-48zm49 0h48v48h-48zm49 0h48v48h-48zm49 0h48v48h-48zm49 0h48v48h-48zm49 0h48v48h-48zm49 0h48v48h-48zm49 0h48v48h-48zm49 0h48v48h-48zM1 344h48v48H1zm49 0h48v48H50zm49 0h48v48H99zm49 0h48v48h-48zm49 0h48v48h-48zm49 0h48v48h-48zm49 0h48v48h-48zm49 0h48v48h-48zm49 0h48v48h-48zm49 0h48v48h-48zm49 0h48v48h-48zm49 0h48v48h-48zm49 0h48v48h-48zm49 0h48v48h-48zm49 0h48v48h-48zm49 0h48v48h-48zM1 393h48v48H1zm49 0h48v48H50zm49 0h48v48H99zm49 0h48v48h-48zm49 0h48v48h-48zm49 0h48v48h-48zm49 0h48v48h-48zm49 0h48v48h-48zm49 0h48v48h-48zm49 0h48v48h-48zm49 0h48v48h-48zm49 0h48v48h-48zm49 0h48v48h-48zm49 0h48v48h-48zm49 0h48v48h-48zm49 0h48v48h-48zM1 442h48v48H1zm49 0h48v48H50zm49 0h48v48H99zm49 0h48v48h-48zm49 0h48v48h-48zm49 0h48v48h-48zm49 0h48v48h-48zm49 0h48v48h-48zm49 0h48v48h-48zm49 0h48v48h-48zm49 0h48v48h-48zm49 0h48v48h-48zm49 0h48v48h-48zm49 0h48v48h-48zm49 0h48v48h-48zm49 0h48v48h-48zM1 491h48v48H1zm49 0h48v48H50zm49 0h48v48H99zm49 0h48v48h-48zm49 0h48v48h-48zm49 0h48v48h-48zm49 0h48v48h-48zm49 0h48v48h-48zm49 0h48v48h-48zm49 0h48v48h-48zm49 0h48v48h-48zm49 0h48v48h-48zm49 0h48v48h-48zm49 0h48v48h-48zm49 0h48v48h-48zm49 0h48v48h-48zM1 540h48v48H1zm49 0h48v48H50zm49 0h48v48H99zm49 0h48v48h-48zm49 0h48v48h-48zm49 0h48v48h-48zm49 0h48v48h-48zm49 0h48v48h-48zm49 0h48v48h-48zm49 0h48v48h-48zm49 0h48v48h-48zm49 0h48v48h-48zm49 0h48v48h-48zm49 0h48v48h-48zm49 0h48v48h-48zm49 0h48v48h-48zM1 589h48v48H1zm49 0h48v48H50zm49 0h48v48H99zm49 0h48v48h-48zm49 0h48v48h-48zm49 0h48v48h-48zm49 0h48v48h-48zm49 0h48v48h-48zm49 0h48v48h-48zm49 0h48v48h-48zm49 0h48v48h-48zm49 0h48v48h-48zm49 0h48v48h-48zm49 0h48v48h-48zm49 0h48v48h-48zm49 0h48v48h-48zM1 638h48v48H1zm49 0h48v48H50zm49 0h48v48H99zm49 0h48v48h-48zm49 0h48v48h-48zm49 0h48v48h-48zm49 0h48v48h-48zm49 0h48v48h-48zm49 0h48v48h-48zm49 0h48v48h-48zm49 0h48v48h-48zm49 0h48v48h-48zm49 0h48v48h-48zm49 0h48v48h-48zm49 0h48v48h-48zm49 0h48v48h-48zM1 687h48v48H1zm49 0h48v48H50zm49 0h48v48H99zm49 0h48v48h-48zm49 0h48v48h-48zm49 0h48v48h-48zm49 0h48v48h-48zm49 0h48v48h-48zm49 0h48v48h-48zm49 0h48v48h-48zm49 0h48v48h-48zm49 0h48v48h-48zm49 0h48v48h-48zm49 0h48v48h-48zm49 0h48v48h-48zm49 0h48v48h-48zM1 736h48v48H1zm49 0h48v48H50zm49 0h48v48H99zm49 0h48v48h-48zm49 0h48v48h-48zm49 0h48v48h-48zm49 0h48v48h-48zm49 0h48v48h-48zm49 0h48v48h-48zm49 0h48v48h-48zm49 0h48v48h-48zm49 0h48v48h-48zm49 0h48v48h-48zm49 0h48v48h-48zm49 0h48v48h-48zm49 0h48v48h-48z"/>
    <path fill="black" fill-opacity="0.2" filter="url(#shadow)" d="M898 38v32h32V38zm38 0v32h32V38zm38 0v32h32V38zm38 0v32h32V38zm38 0v32h32V38zm38 0v32h32V38zm38 0v32h32V38zm38 0v32h32V38zm38 0v32h32V38zm38 0v32h32V38zm38 0v32h32V38zm38 0v32h32V38zM898 76v32h32V76zm38 0v32h32V76zm38 0v32h32V76zm38 0v32h32V76zm38 0v32h32V76zm38 0v32h32V76zm38 0v32h32V76zm38 0v32h32V76zm38 0v32h32V76zm38 0v32h32V76zm38 0v32h32V76zm38 0v32h32V76zm-418 38v32h32v-32zm38 0v32h32v-32zm38 0v32h32v-32zm38 0v32h32v-32zm38 0v32h32v-32zm38 0v32h32v-32zm38 0v32h32v-32zm38 0v32h32v-32zm38 0v32h32v-32zm38 0v32h32v-32zm38 0v32h32v-32zm38 0v32h32v-32zm-418 38v32h32v-32zm38 0v32h32v-32zm38 0v32h32v-32zm38 0v32h32v-32zm38 0v32h32v-32zm38 0v32h32v-32zm38 0v32h32v-32zm38 0v32h32v-32zm38 0v32h32v-32zm38 0v32h32v-32zm38 0v32h32v-32zm38 0v32h32v-32zm-418 38v32h32v-32zm38 0v32h32v-32zm38 0v32h32v-32zm38 0v32h32v-32zm38 0v32h32v-32zm38 0v32h32v-32zm38 0v32h32v-32zm38 0v32h32v-32zm38 0v32h32v-32zm38 0v32h32v-32zm38 0v32h32v-32zm38 0v32h32v-32zm-418 38v32h32v-32zm38 0v32h32v-32zm38 0v32h32v-32zm38 0v32h32v-32zm38 0v32h32v-32zm38 0v32h32v-32zm38 0v32h32v-32zm38 0v32h32v-32zm38 0v32h32v-32zm38 0v32h32v-32zm38 0v32h32v-32zm38 0v32h32v-32zm-418 38v32h32v-32zm38 0v32h32v-32zm38 0v32h32v-32zm38 0v32h32v-32zm38 0v32h32v-32zm38 0v32h32v-32zm38 0v32h32v-32zm38 0v32h32v-32zm38 0v32h32v-32zm38 0v32h32v-32zm38 0v32h32v-32zm38 0v32h32v-32zm-418 38v32h32v-32zm38 0v32h32v-32zm38 0v32h32v-32zm38 0v32h32v-32zm38 0v32h32v-32zm38 0v32h32v-32zm38 0v32h32v-32zm38 0v32h32v-32zm38 0v32h32v-32zm38 0v32h32v-32zm38 0v32h32v-32zm38 0v32h32v-32zm-418 38v32h32v-32zm38 0v32h32v-32zm38 0v32h32v-32zm38 0v32h32v-32zm38 0v32h32v-32zm38 0v32h32v-32zm38 0v32h32v-32zm38 0v32h32v-32zm38 0v32h32v-32zm38 0v32h32v-32zm38 0v32h32v-32zm38 0v32h32v-32zm-418 38v32h32v-32zm38 0v32h32v-32zm38 0v32h32v-32zm38 0v32h32v-32zm38 0v32h32v-32zm38 0v32h32v-32zm38 0v32h32v-32zm38 0v32h32v-32zm38 0v32h32v-32zm38 0v32h32v-32zm38 0v32h32v-32zm38 0v32h32v-32zm-418 38v32h32v-32zm38 0v32h32v-32zm38 0v32h32v-32zm38 0v32h32v-32zm38 0v32h32v-32zm38 0v32h32v-32zm38 0v32h32v-32zm38 0v32h32v-32zm38 0v32h32v-32zm38 0v32h32v-32zm38 0v32h32v-32zm38 0v32h32v-32zm-418 38v32h32v-32zm38 0v32h32v-32zm38 0v32h32v-32zm38 0v32h32v-32zm38 0v32h32v-32zm38 0v32h32v-32zm38 0v32h32v-32zm38 0v32h32v-32zm38 0v32h32v-32zm38 0v32h32v-32zm38 0v32h32v-32zm38 0v32h32v-32zm-418 38v32h32v-32zm38 0v32h32v-32zm38 0v32h32v-32zm38 0v32h32v-32zm38 0v32h32v-32zm38 0v32h32v-32zm38 0v32h32v-32zm38 0v32h32v-32zm38 0v32h32v-32zm38 0v32h32v-32zm38 0v32h32v-32zm38 0v32h32v-32zm-418 38v32h32v-32zm38 0v32h32v-32zm38 0v32h32v-32zm38 0v32h32v-32zm38 0v32h32v-32zm38 0v32h32v-32zm38 0v32h32v-32zm38 0v32h32v-32zm38 0v32h32v-32zm38 0v32h32v-32zm38 0v32h32v-32zm38 0v32h32v-32zm-418 38v32h32v-32zm38 0v32h32v-32zm38 0v32h32v-32zm38 0v32h32v-32zm38 0v32h32v-32zm38 0v32h32v-32zm38 0v32h32v-32zm38 0v32h32v-32zm38 0v32h32v-32zm38 0v32h32v-32zm38 0v32h32v-32zm38 0v32h32v-32zm-418 38v32h32v-32zm38 0v32h32v-32zm38 0v32h32v-32zm38 0v32h32v-32zm38 0v32h32v-32zm38 0v32h32v-32zm38 0v32h32v-32zm38 0v32h32v-32zm38 0v32h32v-32zm38 0v32h32v-32zm38 0v32h32v-32zm38 0v32h32v-32zm-418 38v32h32v-32zm38 0v32h32v-32zm38 0v32h32v-32zm38 0v32h32v-32zm38 0v32h32v-32zm38 0v32h32v-32zm38 0v32h32v-32zm38 0v32h32v-32zm38 0v32h32v-32zm38 0v32h32v-32zm38 0v32h32v-32zm38 0v32h32v-32zm-418 38v32h32v-32zm38 0v32h32v-32zm38 0v32h32v-32zm38 0v32h32v-32zm38 0v32h32v-32zm38 0v32h32v-32zm38 0v32h32v-32zm38 0v32h32v-32zm38 0v32h32v-32zm38 0v32h32v-32zm38 0v32h32v-32zm38 0v32h32v-32zm-418 38v32h32v-32zm38 0v32h32v-32zm38 0v32h32v-32zm38 0v32h32v-32zm38 0v32h32v-32zm38 0v32h32v-32zm38 0v32h32v-32zm38 0v32h32v-32zm38 0v32h32v-32zm38 0v32h32v-32zm38 0v32h32v-32zm38 0v32h32v-32zm-418 38v32h32v-32zm38 0v32h32v-32zm38 0v32h32v-32zm38 0v32h32v-32zm38 0v32h32v-32zm38 0v32h32v-32zm38 0v32h32v-32zm38 0v32h32v-32zm38 0v32h32v-32zm38 0v32h32v-32zm38 0v32h32v-32zm38 0v32h32v-32zm-418 38v32h32v-32zm38 0v32h32v-32zm38 0v32h32v-32zm38 0v32h32v-32zm38 0v32h32v-32zm38 0v32h32v-32zm38 0v32h32v-32zm38 0v32h32v-32zm38 0v32h32v-32zm38 0v32h32v-32zm38 0v32h32v-32zm38 0v32h32v-32zm-418 38v32h32v-32zm38 0v32h32v-32zm38 0v32h32v-32zm38 0v32h32v-32z"/>
    <text fill="white" font-family="Luckiest Guy" font-size="16px" x="37" y="22">/480</text>
    <g fill="white" font-family="Recursive Sans Casual Static">
        <g font-size="18px">
            <text x="80" y="50">1</text>
            <text x="128" y="50">2</text>
            <text x="177" y="50">3</text>
            <text x="226" y="50">4</text>
            <text x="275" y="50">5</text>
            <text x="324" y="50">6</text>
            <text x="373" y="50">7</text>
            <text x="422" y="50">8</text>
            <text x="471" y="50">9</text>
            <text x="514" y="50">10</text>
            <text x="563" y="50">11</text>
            <text x="612" y="50">12</text>
            <text x="661" y="50">13</text>
            <text x="710" y="50">14</text>
            <text x="759" y="50">15</text>
            <text x="808" y="50">16</text>
            <text x="38" y="92">A</text>
            <text x="38" y="141">B</text>
            <text x="38" y="190">C</text>
            <text x="38" y="239">D</text>
            <text x="38" y="288">E</text>
            <text x="38" y="337">F</text>
            <text x="38" y="386">G</text>
            <text x="38" y="435">H</text>
            <text x="38" y="484">I</text>
            <text x="38" y="533">J</text>
            <text x="38" y="582">K</text>
            <text x="38" y="631">L</text>
            <text x="38" y="680">M</text>
            <text x="38" y="729">N</text>
            <text x="38" y="778">O</text>
            <text x="38" y="827">P</text>
        </g>
        <g font-size="13px">
            <text x="910" y="59">1</text>
            <text x="948" y="59">2</text>
            <text x="986" y="59">3</text>
            <text x="1024" y="59">4</text>
            <text x="1062" y="59">5</text>
            <text x="1100" y="59">6</text>
            <text x="1138" y="59">7</text>
            <text x="1176" y="59">8</text>
            <text x="1214" y="59">9</text>
            <text x="1248" y="59">10</text>
            <text x="1286" y="59">11</text>
            <text x="1324" y="59">12</text>
            <text x="906" y="97">13</text>
            <text x="944" y="97">14</text>
            <text x="982" y="97">15</text>
            <text x="1020" y="97">16</text>
            <text x="1058" y="97">17</text>
            <text x="1096" y="97">18</text>
            <text x="1134" y="97">19</text>
            <text x="1172" y="97">20</text>
            <text x="1210" y="97">21</text>
            <text x="1248" y="97">22</text>
            <text x="1286" y="97">23</text>
            <text x="1324" y="97">24</text>
            <text x="906" y="135">25</text>
            <text x="944" y="135">26</text>
            <text x="982" y="135">27</text>
            <text x="1020" y="135">28</text>
            <text x="1058" y="135">29</text>
            <text x="1096" y="135">30</text>
            <text x="1134" y="135">31</text>
            <text x="1172" y="135">32</text>
            <text x="1210" y="135">33</text>
            <text x="1248" y="135">34</text>
            <text x="1286" y="135">35</text>
            <text x="1324" y="135">36</text>
            <text x="906" y="173">37</text>
            <text x="944" y="173">38</text>
            <text x="982" y="173">39</text>
            <text x="1020" y="173">40</text>
            <text x="1058" y="173">41</text>
            <text x="1096" y="173">42</text>
            <text x="1134" y="173">43</text>
            <text x="1172" y="173">44</text>
            <text x="1210" y="173">45</text>
            <text x="1248" y="173">46</text>
            <text x="1286" y="173">47</text>
            <text x="1324" y="173">48</text>
            <text x="906" y="211">49</text>
            <text x="944" y="211">50</text>
            <text x="982" y="211">51</text>
            <text x="1020" y="211">52</text>
            <text x="1058" y="211">53</text>
            <text x="1096" y="211">54</text>
            <text x="1134" y="211">55</text>
            <text x="1172" y="211">56</text>
            <text x="1210" y="211">57</text>
            <text x="1248" y="211">58</text>
            <text x="1286" y="211">59</text>
            <text x="1324" y="211">60</text>
            <text x="906" y="249">61</text>
            <text x="944" y="249">62</text>
            <text x="982" y="249">63</text>
            <text x="1020" y="249">64</text>
            <text x="1058" y="249">65</text>
            <text x="1096" y="249">66</text>
            <text x="1134" y="249">67</text>
            <text x="1172" y="249">68</text>
            <text x="1210" y="249">69</text>
            <text x="1248" y="249">70</text>
            <text x="1286" y="249">71</text>
            <text x="1324" y="249">72</text>
            <text x="906" y="287">73</text>
            <text x="944" y="287">74</text>
            <text x="982" y="287">75</text>
            <text x="1020" y="287">76</text>
            <text x="1058" y="287">77</text>
            <text x="1096" y="287">78</text>
            <text x="1134" y="287">79</text>
            <text x="1172" y="287">80</text>
            <text x="1210" y="287">81</text>
            <text x="1248" y="287">82</text>
            <text x="1286" y="287">83</text>
            <text x="1324" y="287">84</text>
            <text x="906" y="325">85</text>
            <text x="944" y="325">86</text>
            <text x="982" y="325">87</text>
            <text x="1020" y="325">88</text>
            <text x="1058" y="325">89</text>
            <text x="1096" y="325">90</text>
            <text x="1134" y="325">91</text>
            <text x="1172" y="325">92</text>
            <text x="1210" y="325">93</text>
            <text x="1248" y="325">94</text>
            <text x="1286" y="325">95</text>
            <text x="1324" y="325">96</text>
            <text x="906" y="363">97</text>
            <text x="944" y="363">98</text>
            <text x="982" y="363">99</text>
            <text x="1016" y="363">100</text>
            <text x="1054" y="363">101</text>
            <text x="1092" y="363">102</text>
            <text x="1130" y="363">103</text>
            <text x="1168" y="363">104</text>
            <text x="1206" y="363">105</text>
            <text x="1244" y="363">106</text>
            <text x="1282" y="363">107</text>
            <text x="1320" y="363">108</text>
            <text x="902" y="401">109</text>
            <text x="940" y="401">110</text>
            <text x="978" y="401">111</text>
            <text x="1016" y="401">112</text>
            <text x="1054" y="401">113</text>
            <text x="1092" y="401">114</text>
            <text x="1130" y="401">115</text>
            <text x="1168" y="401">116</text>
            <text x="1206" y="401">117</text>
            <text x="1244" y="401">118</text>
            <text x="1282" y="401">119</text>
            <text x="1320" y="401">120</text>
            <text x="902" y="439">121</text>
            <text x="940" y="439">122</text>
            <text x="978" y="439">123</text>
            <text x="1016" y="439">124</text>
            <text x="1054" y="439">125</text>
            <text x="1092" y="439">126</text>
            <text x="1130" y="439">127</text>
            <text x="1168" y="439">128</text>
            <text x="1206" y="439">129</text>
            <text x="1244" y="439">130</text>
            <text x="1282" y="439">131</text>
            <text x="1320" y="439">132</text>
            <text x="902" y="477">133</text>
            <text x="940" y="477">134</text>
            <text x="978" y="477">135</text>
            <text x="1016" y="477">136</text>
            <text x="1054" y="477">137</text>
            <text x="1092" y="477">138</text>
            <text x="1130" y="477">139</text>
            <text x="1168" y="477">140</text>
            <text x="1206" y="477">141</text>
            <text x="1244" y="477">142</text>
            <text x="1282" y="477">143</text>
            <text x="1320" y="477">144</text>
            <text x="902" y="515">145</text>
            <text x="940" y="515">146</text>
            <text x="978" y="515">147</text>
            <text x="1016" y="515">148</text>
            <text x="1054" y="515">149</text>
            <text x="1092" y="515">150</text>
            <text x="1130" y="515">151</text>
            <text x="1168" y="515">152</text>
            <text x="1206" y="515">153</text>
            <text x="1244" y="515">154</text>
            <text x="1282" y="515">155</text>
            <text x="1320" y="515">156</text>
            <text x="902" y="553">157</text>
            <text x="940" y="553">158</text>
            <text x="978" y="553">159</text>
            <text x="1016" y="553">160</text>
            <text x="1054" y="553">161</text>
            <text x="1092" y="553">162</text>
            <text x="1130" y="553">163</text>
            <text x="1168" y="553">164</text>
            <text x="1206" y="553">165</text>
            <text x="1244" y="553">166</text>
            <text x="1282" y="553">167</text>
            <text x="1320" y="553">168</text>
            <text x="902" y="591">169</text>
            <text x="940" y="591">170</text>
            <text x="978" y="591">171</text>
            <text x="1016" y="591">172</text>
            <text x="1054" y="591">173</text>
            <text x="1092" y="591">174</text>
            <text x="1130" y="591">175</text>
            <text x="1168" y="591">176</text>
            <text x="1206" y="591">177</text>
            <text x="1244" y="591">178</text>
            <text x="1282" y="591">179</text>
            <text x="1320" y="591">180</text>
            <text x="902" y="629">181</text>
            <text x="940" y="629">182</text>
            <text x="978" y="629">183</text>
            <text x="1016" y="629">184</text>
            <text x="1054" y="629">185</text>
            <text x="1092" y="629">186</text>
            <text x="1130" y="629">187</text>
            <text x="1168" y="629">188</text>
            <text x="1206" y="629">189</text>
            <text x="1244" y="629">190</text>
            <text x="1282" y="629">191</text>
            <text x="1320" y="629">192</text>
            <text x="902" y="667">193</text>
            <text x="940" y="667">194</text>
            <text x="978" y="667">195</text>
            <text x="1016" y="667">196</text>
            <text x="1054" y="667">197</text>
            <text x="1092" y="667">198</text>
            <text x="1130" y="667">199</text>
            <text x="1168" y="667">200</text>
            <text x="1206" y="667">201</text>
            <text x="1244" y="667">202</text>
            <text x="1282" y="667">203</text>
            <text x="1320" y="667">204</text>
            <text x="902" y="705">205</text>
            <text x="940" y="705">206</text>
            <text x="978" y="705">207</text>
            <text x="1016" y="705">208</text>
            <text x="1054" y="705">209</text>
            <text x="1092" y="705">210</text>
            <text x="1130" y="705">211</text>
            <text x="1168" y="705">212</text>
            <text x="1206" y="705">213</text>
            <text x="1244" y="705">214</text>
            <text x="1282" y="705">215</text>
            <text x="1320" y="705">216</text>
            <text x="902" y="743">217</text>
            <text x="940" y="743">218</text>
            <text x="978" y="743">219</text>
            <text x="1016" y="743">220</text>
            <text x="1054" y="743">221</text>
            <text x="1092" y="743">222</text>
            <text x="1130" y="743">223</text>
            <text x="1168" y="743">224</text>
            <text x="1206" y="743">225</text>
            <text x="1244" y="743">226</text>
            <text x="1282" y="743">227</text>
            <text x="1320" y="743">228</text>
            <text x="902" y="781">229</text>
            <text x="940" y="781">230</text>
            <text x="978" y="781">231</text>
            <text x="1016" y="781">232</text>
            <text x="1054" y="781">233</text>
            <text x="1092" y="781">234</text>
            <text x="1130" y="781">235</text>
            <text x="1168" y="781">236</text>
            <text x="1206" y="781">237</text>
            <text x="1244" y="781">238</text>
            <text x="1282" y="781">239</text>
            <text x="1320" y="781">240</text>
            <text x="902" y="819">241</text>
            <text x="940" y="819">242</text>
            <text x="978" y="819">243</text>
            <text x="1016" y="819">244</text>
            <text x="1054" y="819">245</text>
            <text x="1092" y="819">246</text>
            <text x="1130" y="819">247</text>
            <text x="1168" y="819">248</text>
            <text x="1206" y="819">249</text>
            <text x="1244" y="819">250</text>
            <text x="1282" y="819">251</text>
            <text x="1320" y="819">252</text>
            <text x="902" y="857">253</text>
            <text x="940" y="857">254</text>
            <text x="978" y="857">255</text>
            <text x="1016" y="857">256</text>
        </g>
    </g>
</svg>
