<svg xmlns="http://www.w3.org/2000/svg" fill="black" width="401" height="401" viewBox="0 0 401 401" font-size="12px" font-family="sans-serif">
    <rect fill="#0030f5" x="176" y="201" width="24" height="24"/><text x="185" y="218">0</text>
    <rect fill="#0034f2" x="1" y="376" width="24" height="24"/><text x="10" y="393">1</text>
    <rect fill="#0037ee" x="1" y="351" width="24" height="24"/><text x="10" y="368">2</text>
    <rect fill="#003beb" x="26" y="376" width="24" height="24"/><text x="35" y="393">3</text>
    <rect fill="#033ee7" x="51" y="376" width="24" height="24"/><text x="60" y="393">4</text>
    <rect fill="#0942e4" x="26" y="351" width="24" height="24"/><text x="35" y="368">5</text>
    <rect fill="#0e45e1" x="1" y="326" width="24" height="24"/><text x="10" y="343">6</text>
    <rect fill="#1248dd" x="1" y="301" width="24" height="24"/><text x="10" y="318">7</text>
    <rect fill="#144ada" x="26" y="326" width="24" height="24"/><text x="35" y="343">8</text>
    <rect fill="#164dd6" x="51" y="351" width="24" height="24"/><text x="60" y="368">9</text>
    <rect fill="#1850d3" x="76" y="376" width="24" height="24"/><text x="82" y="393">10</text>
    <rect fill="#1952cf" x="101" y="376" width="24" height="24"/><text x="107" y="393">11</text>
    <rect fill="#1955cc" x="76" y="351" width="24" height="24"/><text x="82" y="368">12</text>
    <rect fill="#1957c8" x="51" y="326" width="24" height="24"/><text x="57" y="343">13</text>
    <rect fill="#1a5ac5" x="26" y="301" width="24" height="24"/><text x="32" y="318">14</text>
    <rect fill="#195cc1" x="1" y="276" width="24" height="24"/><text x="7" y="293">15</text>
    <rect fill="#195ebe" x="1" y="251" width="24" height="24"/><text x="7" y="268">16</text>
    <rect fill="#1960bb" x="26" y="276" width="24" height="24"/><text x="32" y="293">17</text>
    <rect fill="#1863b7" x="51" y="301" width="24" height="24"/><text x="57" y="318">18</text>
    <rect fill="#1865b4" x="76" y="326" width="24" height="24"/><text x="82" y="343">19</text>
    <rect fill="#1867b1" x="101" y="351" width="24" height="24"/><text x="107" y="368">20</text>
    <rect fill="#1769ad" x="126" y="376" width="24" height="24"/><text x="132" y="393">21</text>
    <rect fill="#176aaa" x="151" y="376" width="24" height="24"/><text x="157" y="393">22</text>
    <rect fill="#186ca7" x="126" y="351" width="24" height="24"/><text x="132" y="368">23</text>
    <rect fill="#186ea4" x="101" y="326" width="24" height="24"/><text x="107" y="343">24</text>
    <rect fill="#1970a0" x="76" y="301" width="24" height="24"/><text x="82" y="318">25</text>
    <rect fill="#1b719d" x="51" y="276" width="24" height="24"/><text x="57" y="293">26</text>
    <rect fill="#1c739a" x="26" y="251" width="24" height="24"/><text x="32" y="268">27</text>
    <rect fill="#1e7597" x="1" y="226" width="24" height="24"/><text x="7" y="243">28</text>
    <rect fill="#207694" x="1" y="201" width="24" height="24"/><text x="7" y="218">29</text>
    <rect fill="#227891" x="26" y="226" width="24" height="24"/><text x="32" y="243">30</text>
    <rect fill="#24798e" x="51" y="251" width="24" height="24"/><text x="57" y="268">31</text>
    <rect fill="#277a8b" x="76" y="276" width="24" height="24"/><text x="82" y="293">32</text>
    <rect fill="#297c88" x="101" y="301" width="24" height="24"/><text x="107" y="318">33</text>
    <rect fill="#2b7d85" x="126" y="326" width="24" height="24"/><text x="132" y="343">34</text>
    <rect fill="#2d7e82" x="151" y="351" width="24" height="24"/><text x="157" y="368">35</text>
    <rect fill="#2f807f" x="176" y="376" width="24" height="24"/><text x="182" y="393">36</text>
    <rect fill="#31817c" x="201" y="376" width="24" height="24"/><text x="207" y="393">37</text>
    <rect fill="#338279" x="176" y="351" width="24" height="24"/><text x="182" y="368">38</text>
    <rect fill="#358476" x="151" y="326" width="24" height="24"/><text x="157" y="343">39</text>
    <rect fill="#368573" x="126" y="301" width="24" height="24"/><text x="132" y="318">40</text>
    <rect fill="#388670" x="101" y="276" width="24" height="24"/><text x="107" y="293">41</text>
    <rect fill="#39886d" x="76" y="251" width="24" height="24"/><text x="82" y="268">42</text>
    <rect fill="#3a896a" x="51" y="226" width="24" height="24"/><text x="57" y="243">43</text>
    <rect fill="#3b8a67" x="26" y="201" width="24" height="24"/><text x="32" y="218">44</text>
    <rect fill="#3c8b63" x="1" y="176" width="24" height="24"/><text x="7" y="193">45</text>
    <rect fill="#3d8d60" x="1" y="151" width="24" height="24"/><text x="7" y="168">46</text>
    <rect fill="#3e8e5d" x="26" y="176" width="24" height="24"/><text x="32" y="193">47</text>
    <rect fill="#3e8f5a" x="51" y="201" width="24" height="24"/><text x="57" y="218">48</text>
    <rect fill="#3f9157" x="76" y="226" width="24" height="24"/><text x="82" y="243">49</text>
    <rect fill="#3f9253" x="101" y="251" width="24" height="24"/><text x="107" y="268">50</text>
    <rect fill="#409350" x="126" y="276" width="24" height="24"/><text x="132" y="293">51</text>
    <rect fill="#40954d" x="151" y="301" width="24" height="24"/><text x="157" y="318">52</text>
    <rect fill="#40964a" x="176" y="326" width="24" height="24"/><text x="182" y="343">53</text>
    <rect fill="#419746" x="201" y="351" width="24" height="24"/><text x="207" y="368">54</text>
    <rect fill="#419943" x="226" y="376" width="24" height="24"/><text x="232" y="393">55</text>
    <rect fill="#419a3f" x="251" y="376" width="24" height="24"/><text x="257" y="393">56</text>
    <rect fill="#429b3c" x="226" y="351" width="24" height="24"/><text x="232" y="368">57</text>
    <rect fill="#429c38" x="201" y="326" width="24" height="24"/><text x="207" y="343">58</text>
    <rect fill="#429e35" x="176" y="301" width="24" height="24"/><text x="182" y="318">59</text>
    <rect fill="#439f32" x="151" y="276" width="24" height="24"/><text x="157" y="293">60</text>
    <rect fill="#44a02e" x="126" y="251" width="24" height="24"/><text x="132" y="268">61</text>
    <rect fill="#45a12b" x="101" y="226" width="24" height="24"/><text x="107" y="243">62</text>
    <rect fill="#46a228" x="76" y="201" width="24" height="24"/><text x="82" y="218">63</text>
    <rect fill="#47a325" x="51" y="176" width="24" height="24"/><text x="57" y="193">64</text>
    <rect fill="#49a422" x="26" y="151" width="24" height="24"/><text x="32" y="168">65</text>
    <rect fill="#4ba51f" x="1" y="126" width="24" height="24"/><text x="7" y="143">66</text>
    <rect fill="#4da61c" x="1" y="101" width="24" height="24"/><text x="7" y="118">67</text>
    <rect fill="#4fa71a" x="26" y="126" width="24" height="24"/><text x="32" y="143">68</text>
    <rect fill="#52a818" x="51" y="151" width="24" height="24"/><text x="57" y="168">69</text>
    <rect fill="#54a916" x="76" y="176" width="24" height="24"/><text x="82" y="193">70</text>
    <rect fill="#57aa14" x="101" y="201" width="24" height="24"/><text x="107" y="218">71</text>
    <rect fill="#5aab13" x="126" y="226" width="24" height="24"/><text x="132" y="243">72</text>
    <rect fill="#5dac12" x="151" y="251" width="24" height="24"/><text x="157" y="268">73</text>
    <rect fill="#60ad11" x="176" y="276" width="24" height="24"/><text x="182" y="293">74</text>
    <rect fill="#63ad11" x="201" y="301" width="24" height="24"/><text x="207" y="318">75</text>
    <rect fill="#66ae10" x="226" y="326" width="24" height="24"/><text x="232" y="343">76</text>
    <rect fill="#69af10" x="251" y="351" width="24" height="24"/><text x="257" y="368">77</text>
    <rect fill="#6cb010" x="276" y="376" width="24" height="24"/><text x="282" y="393">78</text>
    <rect fill="#6fb010" x="301" y="376" width="24" height="24"/><text x="307" y="393">79</text>
    <rect fill="#72b111" x="276" y="351" width="24" height="24"/><text x="282" y="368">80</text>
    <rect fill="#76b211" x="251" y="326" width="24" height="24"/><text x="257" y="343">81</text>
    <rect fill="#79b311" x="226" y="301" width="24" height="24"/><text x="232" y="318">82</text>
    <rect fill="#7cb312" x="201" y="276" width="24" height="24"/><text x="207" y="293">83</text>
    <rect fill="#7fb412" x="176" y="251" width="24" height="24"/><text x="182" y="268">84</text>
    <rect fill="#82b513" x="151" y="226" width="24" height="24"/><text x="157" y="243">85</text>
    <rect fill="#85b613" x="126" y="201" width="24" height="24"/><text x="132" y="218">86</text>
    <rect fill="#87b614" x="101" y="176" width="24" height="24"/><text x="107" y="193">87</text>
    <rect fill="#8ab714" x="76" y="151" width="24" height="24"/><text x="82" y="168">88</text>
    <rect fill="#8db814" x="51" y="126" width="24" height="24"/><text x="57" y="143">89</text>
    <rect fill="#90b815" x="26" y="101" width="24" height="24"/><text x="32" y="118">90</text>
    <rect fill="#93b915" x="1" y="76" width="24" height="24"/><text x="7" y="93">91</text>
    <rect fill="#96ba16" x="1" y="51" width="24" height="24"/><text x="7" y="68">92</text>
    <rect fill="#99ba16" x="26" y="76" width="24" height="24"/><text x="32" y="93">93</text>
    <rect fill="#9bbb17" x="51" y="101" width="24" height="24"/><text x="57" y="118">94</text>
    <rect fill="#9ebc17" x="76" y="126" width="24" height="24"/><text x="82" y="143">95</text>
    <rect fill="#a1bc18" x="101" y="151" width="24" height="24"/><text x="107" y="168">96</text>
    <rect fill="#a4bd18" x="126" y="176" width="24" height="24"/><text x="132" y="193">97</text>
    <rect fill="#a7be19" x="151" y="201" width="24" height="24"/><text x="157" y="218">98</text>
    <rect fill="#a9be19" x="176" y="226" width="24" height="24"/><text x="182" y="243">99</text>
    <rect fill="#acbf19" x="201" y="251" width="24" height="24"/><text x="203" y="268">100</text>
    <rect fill="#afc01a" x="226" y="276" width="24" height="24"/><text x="228" y="293">101</text>
    <rect fill="#b1c01a" x="251" y="301" width="24" height="24"/><text x="253" y="318">102</text>
    <rect fill="#b4c11b" x="276" y="326" width="24" height="24"/><text x="278" y="343">103</text>
    <rect fill="#b7c21b" x="301" y="351" width="24" height="24"/><text x="303" y="368">104</text>
    <rect fill="#bac21c" x="326" y="376" width="24" height="24"/><text x="328" y="393">105</text>
    <rect fill="#bcc31c" x="351" y="376" width="24" height="24"/><text x="353" y="393">106</text>
    <rect fill="#bfc31d" x="326" y="351" width="24" height="24"/><text x="328" y="368">107</text>
    <rect fill="#c2c41d" x="301" y="326" width="24" height="24"/><text x="303" y="343">108</text>
    <rect fill="#c4c51e" x="276" y="301" width="24" height="24"/><text x="278" y="318">109</text>
    <rect fill="#c7c51e" x="251" y="276" width="24" height="24"/><text x="253" y="293">110</text>
    <rect fill="#cac61e" x="226" y="251" width="24" height="24"/><text x="228" y="268">111</text>
    <rect fill="#ccc61f" x="201" y="226" width="24" height="24"/><text x="203" y="243">112</text>
    <rect fill="#cfc71f" x="151" y="176" width="24" height="24"/><text x="153" y="193">113</text>
    <rect fill="#d2c820" x="126" y="151" width="24" height="24"/><text x="128" y="168">114</text>
    <rect fill="#d4c820" x="101" y="126" width="24" height="24"/><text x="103" y="143">115</text>
    <rect fill="#d7c921" x="76" y="101" width="24" height="24"/><text x="78" y="118">116</text>
    <rect fill="#d9c921" x="51" y="76" width="24" height="24"/><text x="53" y="93">117</text>
    <rect fill="#dcca22" x="26" y="51" width="24" height="24"/><text x="28" y="68">118</text>
    <rect fill="#dfca22" x="1" y="26" width="24" height="24"/><text x="3" y="43">119</text>
    <rect fill="#e1ca22" x="1" y="1" width="24" height="24"/><text x="3" y="18">120</text>
    <rect fill="#e3cb23" x="26" y="26" width="24" height="24"/><text x="28" y="43">121</text>
    <rect fill="#e6cb23" x="51" y="51" width="24" height="24"/><text x="53" y="68">122</text>
    <rect fill="#e8cb23" x="76" y="76" width="24" height="24"/><text x="78" y="93">123</text>
    <rect fill="#eacb24" x="101" y="101" width="24" height="24"/><text x="103" y="118">124</text>
    <rect fill="#eccb24" x="126" y="126" width="24" height="24"/><text x="128" y="143">125</text>
    <rect fill="#eecb24" x="151" y="151" width="24" height="24"/><text x="153" y="168">126</text>
    <rect fill="#f0cb24" x="176" y="176" width="24" height="24"/><text x="178" y="193">127</text>
    <rect fill="#f1ca24" x="201" y="201" width="24" height="24"/><text x="203" y="218">128</text>
    <rect fill="#f3ca24" x="226" y="226" width="24" height="24"/><text x="228" y="243">129</text>
    <rect fill="#f4c924" x="251" y="251" width="24" height="24"/><text x="253" y="268">130</text>
    <rect fill="#f5c824" x="276" y="276" width="24" height="24"/><text x="278" y="293">131</text>
    <rect fill="#f6c724" x="301" y="301" width="24" height="24"/><text x="303" y="318">132</text>
    <rect fill="#f7c724" x="326" y="326" width="24" height="24"/><text x="328" y="343">133</text>
    <rect fill="#f8c524" x="351" y="351" width="24" height="24"/><text x="353" y="368">134</text>
    <rect fill="#f8c424" x="376" y="376" width="24" height="24"/><text x="378" y="393">135</text>
    <rect fill="#f9c324" x="376" y="351" width="24" height="24"/><text x="378" y="368">136</text>
    <rect fill="#f9c223" x="351" y="326" width="24" height="24"/><text x="353" y="343">137</text>
    <rect fill="#f9c023" x="326" y="301" width="24" height="24"/><text x="328" y="318">138</text>
    <rect fill="#fabf23" x="301" y="276" width="24" height="24"/><text x="303" y="293">139</text>
    <rect fill="#fabe23" x="276" y="251" width="24" height="24"/><text x="278" y="268">140</text>
    <rect fill="#fabc22" x="251" y="226" width="24" height="24"/><text x="253" y="243">141</text>
    <rect fill="#fabb22" x="226" y="201" width="24" height="24"/><text x="228" y="218">142</text>
    <rect fill="#fab922" x="201" y="176" width="24" height="24"/><text x="203" y="193">143</text>
    <rect fill="#fab721" x="176" y="151" width="24" height="24"/><text x="178" y="168">144</text>
    <rect fill="#fab621" x="151" y="126" width="24" height="24"/><text x="153" y="143">145</text>
    <rect fill="#fab421" x="126" y="101" width="24" height="24"/><text x="128" y="118">146</text>
    <rect fill="#fab320" x="101" y="76" width="24" height="24"/><text x="103" y="93">147</text>
    <rect fill="#f9b120" x="76" y="51" width="24" height="24"/><text x="78" y="68">148</text>
    <rect fill="#f9b020" x="51" y="26" width="24" height="24"/><text x="53" y="43">149</text>
    <rect fill="#f9ae1f" x="26" y="1" width="24" height="24"/><text x="28" y="18">150</text>
    <rect fill="#f9ad1f" x="51" y="1" width="24" height="24"/><text x="53" y="18">151</text>
    <rect fill="#f9ab1f" x="76" y="26" width="24" height="24"/><text x="78" y="43">152</text>
    <rect fill="#f9a91e" x="101" y="51" width="24" height="24"/><text x="103" y="68">153</text>
    <rect fill="#f9a81e" x="126" y="76" width="24" height="24"/><text x="128" y="93">154</text>
    <rect fill="#f9a61e" x="151" y="101" width="24" height="24"/><text x="153" y="118">155</text>
    <rect fill="#f8a51d" x="176" y="126" width="24" height="24"/><text x="178" y="143">156</text>
    <rect fill="#f8a31d" x="201" y="151" width="24" height="24"/><text x="203" y="168">157</text>
    <rect fill="#f8a11d" x="226" y="176" width="24" height="24"/><text x="228" y="193">158</text>
    <rect fill="#f8a01d" x="251" y="201" width="24" height="24"/><text x="253" y="218">159</text>
    <rect fill="#f89e1c" x="276" y="226" width="24" height="24"/><text x="278" y="243">160</text>
    <rect fill="#f89d1c" x="301" y="251" width="24" height="24"/><text x="303" y="268">161</text>
    <rect fill="#f89b1c" x="326" y="276" width="24" height="24"/><text x="328" y="293">162</text>
    <rect fill="#f7991b" x="351" y="301" width="24" height="24"/><text x="353" y="318">163</text>
    <rect fill="#f7981b" x="376" y="326" width="24" height="24"/><text x="378" y="343">164</text>
    <rect fill="#f7961b" x="376" y="301" width="24" height="24"/><text x="378" y="318">165</text>
    <rect fill="#f7941a" x="351" y="276" width="24" height="24"/><text x="353" y="293">166</text>
    <rect fill="#f7931a" x="326" y="251" width="24" height="24"/><text x="328" y="268">167</text>
    <rect fill="#f6911a" x="301" y="226" width="24" height="24"/><text x="303" y="243">168</text>
    <rect fill="#f68f1a" x="276" y="201" width="24" height="24"/><text x="278" y="218">169</text>
    <rect fill="#f68e19" x="251" y="176" width="24" height="24"/><text x="253" y="193">170</text>
    <rect fill="#f68c19" x="226" y="151" width="24" height="24"/><text x="228" y="168">171</text>
    <rect fill="#f68a19" x="201" y="126" width="24" height="24"/><text x="203" y="143">172</text>
    <rect fill="#f58918" x="176" y="101" width="24" height="24"/><text x="178" y="118">173</text>
    <rect fill="#f58718" x="151" y="76" width="24" height="24"/><text x="153" y="93">174</text>
    <rect fill="#f58518" x="126" y="51" width="24" height="24"/><text x="128" y="68">175</text>
    <rect fill="#f58418" x="101" y="26" width="24" height="24"/><text x="103" y="43">176</text>
    <rect fill="#f58217" x="76" y="1" width="24" height="24"/><text x="78" y="18">177</text>
    <rect fill="#f48017" x="101" y="1" width="24" height="24"/><text x="103" y="18">178</text>
    <rect fill="#f47e17" x="126" y="26" width="24" height="24"/><text x="128" y="43">179</text>
    <rect fill="#f47d17" x="151" y="51" width="24" height="24"/><text x="153" y="68">180</text>
    <rect fill="#f47b16" x="176" y="76" width="24" height="24"/><text x="178" y="93">181</text>
    <rect fill="#f37916" x="201" y="101" width="24" height="24"/><text x="203" y="118">182</text>
    <rect fill="#f37716" x="226" y="126" width="24" height="24"/><text x="228" y="143">183</text>
    <rect fill="#f37616" x="251" y="151" width="24" height="24"/><text x="253" y="168">184</text>
    <rect fill="#f37415" x="276" y="176" width="24" height="24"/><text x="278" y="193">185</text>
    <rect fill="#f27215" x="301" y="201" width="24" height="24"/><text x="303" y="218">186</text>
    <rect fill="#f27015" x="326" y="226" width="24" height="24"/><text x="328" y="243">187</text>
    <rect fill="#f26e15" x="351" y="251" width="24" height="24"/><text x="353" y="268">188</text>
    <rect fill="#f16d15" x="376" y="276" width="24" height="24"/><text x="378" y="293">189</text>
    <rect fill="#f16b15" x="376" y="251" width="24" height="24"/><text x="378" y="268">190</text>
    <rect fill="#f16915" x="351" y="226" width="24" height="24"/><text x="353" y="243">191</text>
    <rect fill="#f16715" x="326" y="201" width="24" height="24"/><text x="328" y="218">192</text>
    <rect fill="#f06515" x="301" y="176" width="24" height="24"/><text x="303" y="193">193</text>
    <rect fill="#f06416" x="276" y="151" width="24" height="24"/><text x="278" y="168">194</text>
    <rect fill="#f06216" x="251" y="126" width="24" height="24"/><text x="253" y="143">195</text>
    <rect fill="#f06017" x="226" y="101" width="24" height="24"/><text x="228" y="118">196</text>
    <rect fill="#f05f18" x="201" y="76" width="24" height="24"/><text x="203" y="93">197</text>
    <rect fill="#f05d1a" x="176" y="51" width="24" height="24"/><text x="178" y="68">198</text>
    <rect fill="#f05c1b" x="151" y="26" width="24" height="24"/><text x="153" y="43">199</text>
    <rect fill="#f05a1d" x="126" y="1" width="24" height="24"/><text x="129" y="18">200</text>
    <rect fill="#f0591f" x="151" y="1" width="24" height="24"/><text x="154" y="18">201</text>
    <rect fill="#f05821" x="176" y="26" width="24" height="24"/><text x="179" y="43">202</text>
    <rect fill="#f05723" x="201" y="51" width="24" height="24"/><text x="204" y="68">203</text>
    <rect fill="#f05726" x="226" y="76" width="24" height="24"/><text x="229" y="93">204</text>
    <rect fill="#f15629" x="251" y="101" width="24" height="24"/><text x="254" y="118">205</text>
    <rect fill="#f1562c" x="276" y="126" width="24" height="24"/><text x="279" y="143">206</text>
    <rect fill="#f2562f" x="301" y="151" width="24" height="24"/><text x="304" y="168">207</text>
    <rect fill="#f25633" x="326" y="176" width="24" height="24"/><text x="329" y="193">208</text>
    <rect fill="#f35636" x="351" y="201" width="24" height="24"/><text x="354" y="218">209</text>
    <rect fill="#f3573a" x="376" y="226" width="24" height="24"/><text x="379" y="243">210</text>
    <rect fill="#f4583e" x="376" y="201" width="24" height="24"/><text x="379" y="218">211</text>
    <rect fill="#f55841" x="351" y="176" width="24" height="24"/><text x="354" y="193">212</text>
    <rect fill="#f55945" x="326" y="151" width="24" height="24"/><text x="329" y="168">213</text>
    <rect fill="#f65a49" x="301" y="126" width="24" height="24"/><text x="304" y="143">214</text>
    <rect fill="#f75b4d" x="276" y="101" width="24" height="24"/><text x="279" y="118">215</text>
    <rect fill="#f75c52" x="251" y="76" width="24" height="24"/><text x="254" y="93">216</text>
    <rect fill="#f85e56" x="226" y="51" width="24" height="24"/><text x="229" y="68">217</text>
    <rect fill="#f95f5a" x="201" y="26" width="24" height="24"/><text x="204" y="43">218</text>
    <rect fill="#f9605e" x="176" y="1" width="24" height="24"/><text x="179" y="18">219</text>
    <rect fill="#fa6162" x="201" y="1" width="24" height="24"/><text x="204" y="18">220</text>
    <rect fill="#fb6366" x="226" y="26" width="24" height="24"/><text x="229" y="43">221</text>
    <rect fill="#fb646a" x="251" y="51" width="24" height="24"/><text x="254" y="68">222</text>
    <rect fill="#fc656f" x="276" y="76" width="24" height="24"/><text x="279" y="93">223</text>
    <rect fill="#fc6773" x="301" y="101" width="24" height="24"/><text x="304" y="118">224</text>
    <rect fill="#fd6877" x="326" y="126" width="24" height="24"/><text x="329" y="143">225</text>
    <rect fill="#fd697b" x="351" y="151" width="24" height="24"/><text x="354" y="168">226</text>
    <rect fill="#fe6b80" x="376" y="176" width="24" height="24"/><text x="379" y="193">227</text>
    <rect fill="#fe6c84" x="376" y="151" width="24" height="24"/><text x="379" y="168">228</text>
    <rect fill="#ff6d88" x="351" y="126" width="24" height="24"/><text x="354" y="143">229</text>
    <rect fill="#ff6f8c" x="326" y="101" width="24" height="24"/><text x="329" y="118">230</text>
    <rect fill="#ff7091" x="301" y="76" width="24" height="24"/><text x="304" y="93">231</text>
    <rect fill="#ff7195" x="276" y="51" width="24" height="24"/><text x="279" y="68">232</text>
    <rect fill="#ff7399" x="251" y="26" width="24" height="24"/><text x="254" y="43">233</text>
    <rect fill="#ff749d" x="226" y="1" width="24" height="24"/><text x="229" y="18">234</text>
    <rect fill="#ff76a2" x="251" y="1" width="24" height="24"/><text x="254" y="18">235</text>
    <rect fill="#ff77a6" x="276" y="26" width="24" height="24"/><text x="279" y="43">236</text>
    <rect fill="#ff78aa" x="301" y="51" width="24" height="24"/><text x="304" y="68">237</text>
    <rect fill="#ff7aaf" x="326" y="76" width="24" height="24"/><text x="329" y="93">238</text>
    <rect fill="#ff7bb3" x="351" y="101" width="24" height="24"/><text x="354" y="118">239</text>
    <rect fill="#ff7db7" x="376" y="126" width="24" height="24"/><text x="379" y="143">240</text>
    <rect fill="#ff7ebc" x="376" y="101" width="24" height="24"/><text x="379" y="118">241</text>
    <rect fill="#ff7fc0" x="351" y="76" width="24" height="24"/><text x="354" y="93">242</text>
    <rect fill="#ff81c4" x="326" y="51" width="24" height="24"/><text x="329" y="68">243</text>
    <rect fill="#ff82c9" x="301" y="26" width="24" height="24"/><text x="304" y="43">244</text>
    <rect fill="#ff84cd" x="276" y="1" width="24" height="24"/><text x="279" y="18">245</text>
    <rect fill="#ff85d2" x="301" y="1" width="24" height="24"/><text x="304" y="18">246</text>
    <rect fill="#ff86d6" x="326" y="26" width="24" height="24"/><text x="329" y="43">247</text>
    <rect fill="#ff88db" x="351" y="51" width="24" height="24"/><text x="354" y="68">248</text>
    <rect fill="#ff89df" x="376" y="76" width="24" height="24"/><text x="379" y="93">249</text>
    <rect fill="#ff8be3" x="376" y="51" width="24" height="24"/><text x="379" y="68">250</text>
    <rect fill="#ff8ce8" x="351" y="26" width="24" height="24"/><text x="354" y="43">251</text>
    <rect fill="#ff8dec" x="326" y="1" width="24" height="24"/><text x="329" y="18">252</text>
    <rect fill="#fe8ff1" x="351" y="1" width="24" height="24"/><text x="354" y="18">253</text>
    <rect fill="#fe90f5" x="376" y="26" width="24" height="24"/><text x="379" y="43">254</text>
    <rect fill="#fd92fa" x="376" y="1" width="24" height="24"/><text x="379" y="18">255</text>
</svg>
