<svg xmlns="http://www.w3.org/2000/svg" fill="black" width="401" height="401" viewBox="0 0 401 401" font-size="12px" font-family="sans-serif">
    <rect fill="#0030f5" x="176" y="201" width="24" height="24"/><text x="185" y="218">0</text>
    <rect fill="#0034f2" x="1" y="376" width="24" height="24"/><text x="10" y="393">1</text>
    <rect fill="#0037ee" x="26" y="376" width="24" height="24"/><text x="35" y="393">2</text>
    <rect fill="#003beb" x="51" y="376" width="24" height="24"/><text x="60" y="393">3</text>
    <rect fill="#033ee7" x="76" y="376" width="24" height="24"/><text x="85" y="393">4</text>
    <rect fill="#0942e4" x="101" y="376" width="24" height="24"/><text x="110" y="393">5</text>
    <rect fill="#0e45e1" x="126" y="376" width="24" height="24"/><text x="135" y="393">6</text>
    <rect fill="#1248dd" x="151" y="376" width="24" height="24"/><text x="160" y="393">7</text>
    <rect fill="#144ada" x="176" y="376" width="24" height="24"/><text x="185" y="393">8</text>
    <rect fill="#164dd6" x="201" y="376" width="24" height="24"/><text x="210" y="393">9</text>
    <rect fill="#1850d3" x="226" y="376" width="24" height="24"/><text x="232" y="393">10</text>
    <rect fill="#1952cf" x="251" y="376" width="24" height="24"/><text x="257" y="393">11</text>
    <rect fill="#1955cc" x="276" y="376" width="24" height="24"/><text x="282" y="393">12</text>
    <rect fill="#1957c8" x="301" y="376" width="24" height="24"/><text x="307" y="393">13</text>
    <rect fill="#1a5ac5" x="326" y="376" width="24" height="24"/><text x="332" y="393">14</text>
    <rect fill="#195cc1" x="351" y="376" width="24" height="24"/><text x="357" y="393">15</text>
    <rect fill="#195ebe" x="376" y="376" width="24" height="24"/><text x="382" y="393">16</text>
    <rect fill="#1960bb" x="1" y="351" width="24" height="24"/><text x="7" y="368">17</text>
    <rect fill="#1863b7" x="26" y="351" width="24" height="24"/><text x="32" y="368">18</text>
    <rect fill="#1865b4" x="51" y="351" width="24" height="24"/><text x="57" y="368">19</text>
    <rect fill="#1867b1" x="76" y="351" width="24" height="24"/><text x="82" y="368">20</text>
    <rect fill="#1769ad" x="101" y="351" width="24" height="24"/><text x="107" y="368">21</text>
    <rect fill="#176aaa" x="126" y="351" width="24" height="24"/><text x="132" y="368">22</text>
    <rect fill="#186ca7" x="151" y="351" width="24" height="24"/><text x="157" y="368">23</text>
    <rect fill="#186ea4" x="176" y="351" width="24" height="24"/><text x="182" y="368">24</text>
    <rect fill="#1970a0" x="201" y="351" width="24" height="24"/><text x="207" y="368">25</text>
    <rect fill="#1b719d" x="226" y="351" width="24" height="24"/><text x="232" y="368">26</text>
    <rect fill="#1c739a" x="251" y="351" width="24" height="24"/><text x="257" y="368">27</text>
    <rect fill="#1e7597" x="276" y="351" width="24" height="24"/><text x="282" y="368">28</text>
    <rect fill="#207694" x="301" y="351" width="24" height="24"/><text x="307" y="368">29</text>
    <rect fill="#227891" x="326" y="351" width="24" height="24"/><text x="332" y="368">30</text>
    <rect fill="#24798e" x="351" y="351" width="24" height="24"/><text x="357" y="368">31</text>
    <rect fill="#277a8b" x="376" y="351" width="24" height="24"/><text x="382" y="368">32</text>
    <rect fill="#297c88" x="1" y="326" width="24" height="24"/><text x="7" y="343">33</text>
    <rect fill="#2b7d85" x="26" y="326" width="24" height="24"/><text x="32" y="343">34</text>
    <rect fill="#2d7e82" x="51" y="326" width="24" height="24"/><text x="57" y="343">35</text>
    <rect fill="#2f807f" x="76" y="326" width="24" height="24"/><text x="82" y="343">36</text>
    <rect fill="#31817c" x="101" y="326" width="24" height="24"/><text x="107" y="343">37</text>
    <rect fill="#338279" x="126" y="326" width="24" height="24"/><text x="132" y="343">38</text>
    <rect fill="#358476" x="151" y="326" width="24" height="24"/><text x="157" y="343">39</text>
    <rect fill="#368573" x="176" y="326" width="24" height="24"/><text x="182" y="343">40</text>
    <rect fill="#388670" x="201" y="326" width="24" height="24"/><text x="207" y="343">41</text>
    <rect fill="#39886d" x="226" y="326" width="24" height="24"/><text x="232" y="343">42</text>
    <rect fill="#3a896a" x="251" y="326" width="24" height="24"/><text x="257" y="343">43</text>
    <rect fill="#3b8a67" x="276" y="326" width="24" height="24"/><text x="282" y="343">44</text>
    <rect fill="#3c8b63" x="301" y="326" width="24" height="24"/><text x="307" y="343">45</text>
    <rect fill="#3d8d60" x="326" y="326" width="24" height="24"/><text x="332" y="343">46</text>
    <rect fill="#3e8e5d" x="351" y="326" width="24" height="24"/><text x="357" y="343">47</text>
    <rect fill="#3e8f5a" x="376" y="326" width="24" height="24"/><text x="382" y="343">48</text>
    <rect fill="#3f9157" x="1" y="301" width="24" height="24"/><text x="7" y="318">49</text>
    <rect fill="#3f9253" x="26" y="301" width="24" height="24"/><text x="32" y="318">50</text>
    <rect fill="#409350" x="51" y="301" width="24" height="24"/><text x="57" y="318">51</text>
    <rect fill="#40954d" x="76" y="301" width="24" height="24"/><text x="82" y="318">52</text>
    <rect fill="#40964a" x="101" y="301" width="24" height="24"/><text x="107" y="318">53</text>
    <rect fill="#419746" x="126" y="301" width="24" height="24"/><text x="132" y="318">54</text>
    <rect fill="#419943" x="151" y="301" width="24" height="24"/><text x="157" y="318">55</text>
    <rect fill="#419a3f" x="176" y="301" width="24" height="24"/><text x="182" y="318">56</text>
    <rect fill="#429b3c" x="201" y="301" width="24" height="24"/><text x="207" y="318">57</text>
    <rect fill="#429c38" x="226" y="301" width="24" height="24"/><text x="232" y="318">58</text>
    <rect fill="#429e35" x="251" y="301" width="24" height="24"/><text x="257" y="318">59</text>
    <rect fill="#439f32" x="276" y="301" width="24" height="24"/><text x="282" y="318">60</text>
    <rect fill="#44a02e" x="301" y="301" width="24" height="24"/><text x="307" y="318">61</text>
    <rect fill="#45a12b" x="326" y="301" width="24" height="24"/><text x="332" y="318">62</text>
    <rect fill="#46a228" x="351" y="301" width="24" height="24"/><text x="357" y="318">63</text>
    <rect fill="#47a325" x="376" y="301" width="24" height="24"/><text x="382" y="318">64</text>
    <rect fill="#49a422" x="1" y="276" width="24" height="24"/><text x="7" y="293">65</text>
    <rect fill="#4ba51f" x="26" y="276" width="24" height="24"/><text x="32" y="293">66</text>
    <rect fill="#4da61c" x="51" y="276" width="24" height="24"/><text x="57" y="293">67</text>
    <rect fill="#4fa71a" x="76" y="276" width="24" height="24"/><text x="82" y="293">68</text>
    <rect fill="#52a818" x="101" y="276" width="24" height="24"/><text x="107" y="293">69</text>
    <rect fill="#54a916" x="126" y="276" width="24" height="24"/><text x="132" y="293">70</text>
    <rect fill="#57aa14" x="151" y="276" width="24" height="24"/><text x="157" y="293">71</text>
    <rect fill="#5aab13" x="176" y="276" width="24" height="24"/><text x="182" y="293">72</text>
    <rect fill="#5dac12" x="201" y="276" width="24" height="24"/><text x="207" y="293">73</text>
    <rect fill="#60ad11" x="226" y="276" width="24" height="24"/><text x="232" y="293">74</text>
    <rect fill="#63ad11" x="251" y="276" width="24" height="24"/><text x="257" y="293">75</text>
    <rect fill="#66ae10" x="276" y="276" width="24" height="24"/><text x="282" y="293">76</text>
    <rect fill="#69af10" x="301" y="276" width="24" height="24"/><text x="307" y="293">77</text>
    <rect fill="#6cb010" x="326" y="276" width="24" height="24"/><text x="332" y="293">78</text>
    <rect fill="#6fb010" x="351" y="276" width="24" height="24"/><text x="357" y="293">79</text>
    <rect fill="#72b111" x="376" y="276" width="24" height="24"/><text x="382" y="293">80</text>
    <rect fill="#76b211" x="1" y="251" width="24" height="24"/><text x="7" y="268">81</text>
    <rect fill="#79b311" x="26" y="251" width="24" height="24"/><text x="32" y="268">82</text>
    <rect fill="#7cb312" x="51" y="251" width="24" height="24"/><text x="57" y="268">83</text>
    <rect fill="#7fb412" x="76" y="251" width="24" height="24"/><text x="82" y="268">84</text>
    <rect fill="#82b513" x="101" y="251" width="24" height="24"/><text x="107" y="268">85</text>
    <rect fill="#85b613" x="126" y="251" width="24" height="24"/><text x="132" y="268">86</text>
    <rect fill="#87b614" x="151" y="251" width="24" height="24"/><text x="157" y="268">87</text>
    <rect fill="#8ab714" x="176" y="251" width="24" height="24"/><text x="182" y="268">88</text>
    <rect fill="#8db814" x="201" y="251" width="24" height="24"/><text x="207" y="268">89</text>
    <rect fill="#90b815" x="226" y="251" width="24" height="24"/><text x="232" y="268">90</text>
    <rect fill="#93b915" x="251" y="251" width="24" height="24"/><text x="257" y="268">91</text>
    <rect fill="#96ba16" x="276" y="251" width="24" height="24"/><text x="282" y="268">92</text>
    <rect fill="#99ba16" x="301" y="251" width="24" height="24"/><text x="307" y="268">93</text>
    <rect fill="#9bbb17" x="326" y="251" width="24" height="24"/><text x="332" y="268">94</text>
    <rect fill="#9ebc17" x="351" y="251" width="24" height="24"/><text x="357" y="268">95</text>
    <rect fill="#a1bc18" x="376" y="251" width="24" height="24"/><text x="382" y="268">96</text>
    <rect fill="#a4bd18" x="1" y="226" width="24" height="24"/><text x="7" y="243">97</text>
    <rect fill="#a7be19" x="26" y="226" width="24" height="24"/><text x="32" y="243">98</text>
    <rect fill="#a9be19" x="51" y="226" width="24" height="24"/><text x="57" y="243">99</text>
    <rect fill="#acbf19" x="76" y="226" width="24" height="24"/><text x="78" y="243">100</text>
    <rect fill="#afc01a" x="101" y="226" width="24" height="24"/><text x="103" y="243">101</text>
    <rect fill="#b1c01a" x="126" y="226" width="24" height="24"/><text x="128" y="243">102</text>
    <rect fill="#b4c11b" x="151" y="226" width="24" height="24"/><text x="153" y="243">103</text>
    <rect fill="#b7c21b" x="176" y="226" width="24" height="24"/><text x="178" y="243">104</text>
    <rect fill="#bac21c" x="201" y="226" width="24" height="24"/><text x="203" y="243">105</text>
    <rect fill="#bcc31c" x="226" y="226" width="24" height="24"/><text x="228" y="243">106</text>
    <rect fill="#bfc31d" x="251" y="226" width="24" height="24"/><text x="253" y="243">107</text>
    <rect fill="#c2c41d" x="276" y="226" width="24" height="24"/><text x="278" y="243">108</text>
    <rect fill="#c4c51e" x="301" y="226" width="24" height="24"/><text x="303" y="243">109</text>
    <rect fill="#c7c51e" x="326" y="226" width="24" height="24"/><text x="328" y="243">110</text>
    <rect fill="#cac61e" x="351" y="226" width="24" height="24"/><text x="353" y="243">111</text>
    <rect fill="#ccc61f" x="376" y="226" width="24" height="24"/><text x="378" y="243">112</text>
    <rect fill="#cfc71f" x="1" y="201" width="24" height="24"/><text x="3" y="218">113</text>
    <rect fill="#d2c820" x="26" y="201" width="24" height="24"/><text x="28" y="218">114</text>
    <rect fill="#d4c820" x="51" y="201" width="24" height="24"/><text x="53" y="218">115</text>
    <rect fill="#d7c921" x="76" y="201" width="24" height="24"/><text x="78" y="218">116</text>
    <rect fill="#d9c921" x="101" y="201" width="24" height="24"/><text x="103" y="218">117</text>
    <rect fill="#dcca22" x="126" y="201" width="24" height="24"/><text x="128" y="218">118</text>
    <rect fill="#dfca22" x="151" y="201" width="24" height="24"/><text x="153" y="218">119</text>
    <rect fill="#e1ca22" x="201" y="201" width="24" height="24"/><text x="203" y="218">120</text>
    <rect fill="#e3cb23" x="226" y="201" width="24" height="24"/><text x="228" y="218">121</text>
    <rect fill="#e6cb23" x="251" y="201" width="24" height="24"/><text x="253" y="218">122</text>
    <rect fill="#e8cb23" x="276" y="201" width="24" height="24"/><text x="278" y="218">123</text>
    <rect fill="#eacb24" x="301" y="201" width="24" height="24"/><text x="303" y="218">124</text>
    <rect fill="#eccb24" x="326" y="201" width="24" height="24"/><text x="328" y="218">125</text>
    <rect fill="#eecb24" x="351" y="201" width="24" height="24"/><text x="353" y="218">126</text>
    <rect fill="#f0cb24" x="376" y="201" width="24" height="24"/><text x="378" y="218">127</text>
    <rect fill="#f1ca24" x="1" y="176" width="24" height="24"/><text x="3" y="193">128</text>
    <rect fill="#f3ca24" x="26" y="176" width="24" height="24"/><text x="28" y="193">129</text>
    <rect fill="#f4c924" x="51" y="176" width="24" height="24"/><text x="53" y="193">130</text>
    <rect fill="#f5c824" x="76" y="176" width="24" height="24"/><text x="78" y="193">131</text>
    <rect fill="#f6c724" x="101" y="176" width="24" height="24"/><text x="103" y="193">132</text>
    <rect fill="#f7c724" x="126" y="176" width="24" height="24"/><text x="128" y="193">133</text>
    <rect fill="#f8c524" x="151" y="176" width="24" height="24"/><text x="153" y="193">134</text>
    <rect fill="#f8c424" x="176" y="176" width="24" height="24"/><text x="178" y="193">135</text>
    <rect fill="#f9c324" x="201" y="176" width="24" height="24"/><text x="203" y="193">136</text>
    <rect fill="#f9c223" x="226" y="176" width="24" height="24"/><text x="228" y="193">137</text>
    <rect fill="#f9c023" x="251" y="176" width="24" height="24"/><text x="253" y="193">138</text>
    <rect fill="#fabf23" x="276" y="176" width="24" height="24"/><text x="278" y="193">139</text>
    <rect fill="#fabe23" x="301" y="176" width="24" height="24"/><text x="303" y="193">140</text>
    <rect fill="#fabc22" x="326" y="176" width="24" height="24"/><text x="328" y="193">141</text>
    <rect fill="#fabb22" x="351" y="176" width="24" height="24"/><text x="353" y="193">142</text>
    <rect fill="#fab922" x="376" y="176" width="24" height="24"/><text x="378" y="193">143</text>
    <rect fill="#fab721" x="1" y="151" width="24" height="24"/><text x="3" y="168">144</text>
    <rect fill="#fab621" x="26" y="151" width="24" height="24"/><text x="28" y="168">145</text>
    <rect fill="#fab421" x="51" y="151" width="24" height="24"/><text x="53" y="168">146</text>
    <rect fill="#fab320" x="76" y="151" width="24" height="24"/><text x="78" y="168">147</text>
    <rect fill="#f9b120" x="101" y="151" width="24" height="24"/><text x="103" y="168">148</text>
    <rect fill="#f9b020" x="126" y="151" width="24" height="24"/><text x="128" y="168">149</text>
    <rect fill="#f9ae1f" x="151" y="151" width="24" height="24"/><text x="153" y="168">150</text>
    <rect fill="#f9ad1f" x="176" y="151" width="24" height="24"/><text x="178" y="168">151</text>
    <rect fill="#f9ab1f" x="201" y="151" width="24" height="24"/><text x="203" y="168">152</text>
    <rect fill="#f9a91e" x="226" y="151" width="24" height="24"/><text x="228" y="168">153</text>
    <rect fill="#f9a81e" x="251" y="151" width="24" height="24"/><text x="253" y="168">154</text>
    <rect fill="#f9a61e" x="276" y="151" width="24" height="24"/><text x="278" y="168">155</text>
    <rect fill="#f8a51d" x="301" y="151" width="24" height="24"/><text x="303" y="168">156</text>
    <rect fill="#f8a31d" x="326" y="151" width="24" height="24"/><text x="328" y="168">157</text>
    <rect fill="#f8a11d" x="351" y="151" width="24" height="24"/><text x="353" y="168">158</text>
    <rect fill="#f8a01d" x="376" y="151" width="24" height="24"/><text x="378" y="168">159</text>
    <rect fill="#f89e1c" x="1" y="126" width="24" height="24"/><text x="3" y="143">160</text>
    <rect fill="#f89d1c" x="26" y="126" width="24" height="24"/><text x="28" y="143">161</text>
    <rect fill="#f89b1c" x="51" y="126" width="24" height="24"/><text x="53" y="143">162</text>
    <rect fill="#f7991b" x="76" y="126" width="24" height="24"/><text x="78" y="143">163</text>
    <rect fill="#f7981b" x="101" y="126" width="24" height="24"/><text x="103" y="143">164</text>
    <rect fill="#f7961b" x="126" y="126" width="24" height="24"/><text x="128" y="143">165</text>
    <rect fill="#f7941a" x="151" y="126" width="24" height="24"/><text x="153" y="143">166</text>
    <rect fill="#f7931a" x="176" y="126" width="24" height="24"/><text x="178" y="143">167</text>
    <rect fill="#f6911a" x="201" y="126" width="24" height="24"/><text x="203" y="143">168</text>
    <rect fill="#f68f1a" x="226" y="126" width="24" height="24"/><text x="228" y="143">169</text>
    <rect fill="#f68e19" x="251" y="126" width="24" height="24"/><text x="253" y="143">170</text>
    <rect fill="#f68c19" x="276" y="126" width="24" height="24"/><text x="278" y="143">171</text>
    <rect fill="#f68a19" x="301" y="126" width="24" height="24"/><text x="303" y="143">172</text>
    <rect fill="#f58918" x="326" y="126" width="24" height="24"/><text x="328" y="143">173</text>
    <rect fill="#f58718" x="351" y="126" width="24" height="24"/><text x="353" y="143">174</text>
    <rect fill="#f58518" x="376" y="126" width="24" height="24"/><text x="378" y="143">175</text>
    <rect fill="#f58418" x="1" y="101" width="24" height="24"/><text x="3" y="118">176</text>
    <rect fill="#f58217" x="26" y="101" width="24" height="24"/><text x="28" y="118">177</text>
    <rect fill="#f48017" x="51" y="101" width="24" height="24"/><text x="53" y="118">178</text>
    <rect fill="#f47e17" x="76" y="101" width="24" height="24"/><text x="78" y="118">179</text>
    <rect fill="#f47d17" x="101" y="101" width="24" height="24"/><text x="103" y="118">180</text>
    <rect fill="#f47b16" x="126" y="101" width="24" height="24"/><text x="128" y="118">181</text>
    <rect fill="#f37916" x="151" y="101" width="24" height="24"/><text x="153" y="118">182</text>
    <rect fill="#f37716" x="176" y="101" width="24" height="24"/><text x="178" y="118">183</text>
    <rect fill="#f37616" x="201" y="101" width="24" height="24"/><text x="203" y="118">184</text>
    <rect fill="#f37415" x="226" y="101" width="24" height="24"/><text x="228" y="118">185</text>
    <rect fill="#f27215" x="251" y="101" width="24" height="24"/><text x="253" y="118">186</text>
    <rect fill="#f27015" x="276" y="101" width="24" height="24"/><text x="278" y="118">187</text>
    <rect fill="#f26e15" x="301" y="101" width="24" height="24"/><text x="303" y="118">188</text>
    <rect fill="#f16d15" x="326" y="101" width="24" height="24"/><text x="328" y="118">189</text>
    <rect fill="#f16b15" x="351" y="101" width="24" height="24"/><text x="353" y="118">190</text>
    <rect fill="#f16915" x="376" y="101" width="24" height="24"/><text x="378" y="118">191</text>
    <rect fill="#f16715" x="1" y="76" width="24" height="24"/><text x="3" y="93">192</text>
    <rect fill="#f06515" x="1" y="51" width="24" height="24"/><text x="3" y="68">193</text>
    <rect fill="#f06416" x="1" y="26" width="24" height="24"/><text x="3" y="43">194</text>
    <rect fill="#f06216" x="1" y="1" width="24" height="24"/><text x="3" y="18">195</text>
    <rect fill="#f06017" x="26" y="76" width="24" height="24"/><text x="28" y="93">196</text>
    <rect fill="#f05f18" x="26" y="51" width="24" height="24"/><text x="28" y="68">197</text>
    <rect fill="#f05d1a" x="26" y="26" width="24" height="24"/><text x="28" y="43">198</text>
    <rect fill="#f05c1b" x="26" y="1" width="24" height="24"/><text x="28" y="18">199</text>
    <rect fill="#f05a1d" x="51" y="76" width="24" height="24"/><text x="54" y="93">200</text>
    <rect fill="#f0591f" x="51" y="51" width="24" height="24"/><text x="54" y="68">201</text>
    <rect fill="#f05821" x="51" y="26" width="24" height="24"/><text x="54" y="43">202</text>
    <rect fill="#f05723" x="51" y="1" width="24" height="24"/><text x="54" y="18">203</text>
    <rect fill="#f05726" x="76" y="76" width="24" height="24"/><text x="79" y="93">204</text>
    <rect fill="#f15629" x="76" y="51" width="24" height="24"/><text x="79" y="68">205</text>
    <rect fill="#f1562c" x="76" y="26" width="24" height="24"/><text x="79" y="43">206</text>
    <rect fill="#f2562f" x="76" y="1" width="24" height="24"/><text x="79" y="18">207</text>
    <rect fill="#f25633" x="101" y="76" width="24" height="24"/><text x="104" y="93">208</text>
    <rect fill="#f35636" x="101" y="51" width="24" height="24"/><text x="104" y="68">209</text>
    <rect fill="#f3573a" x="101" y="26" width="24" height="24"/><text x="104" y="43">210</text>
    <rect fill="#f4583e" x="101" y="1" width="24" height="24"/><text x="104" y="18">211</text>
    <rect fill="#f55841" x="126" y="76" width="24" height="24"/><text x="129" y="93">212</text>
    <rect fill="#f55945" x="126" y="51" width="24" height="24"/><text x="129" y="68">213</text>
    <rect fill="#f65a49" x="126" y="26" width="24" height="24"/><text x="129" y="43">214</text>
    <rect fill="#f75b4d" x="126" y="1" width="24" height="24"/><text x="129" y="18">215</text>
    <rect fill="#f75c52" x="151" y="76" width="24" height="24"/><text x="154" y="93">216</text>
    <rect fill="#f85e56" x="151" y="51" width="24" height="24"/><text x="154" y="68">217</text>
    <rect fill="#f95f5a" x="151" y="26" width="24" height="24"/><text x="154" y="43">218</text>
    <rect fill="#f9605e" x="151" y="1" width="24" height="24"/><text x="154" y="18">219</text>
    <rect fill="#fa6162" x="176" y="76" width="24" height="24"/><text x="179" y="93">220</text>
    <rect fill="#fb6366" x="176" y="51" width="24" height="24"/><text x="179" y="68">221</text>
    <rect fill="#fb646a" x="176" y="26" width="24" height="24"/><text x="179" y="43">222</text>
    <rect fill="#fc656f" x="176" y="1" width="24" height="24"/><text x="179" y="18">223</text>
    <rect fill="#fc6773" x="201" y="76" width="24" height="24"/><text x="204" y="93">224</text>
    <rect fill="#fd6877" x="201" y="51" width="24" height="24"/><text x="204" y="68">225</text>
    <rect fill="#fd697b" x="201" y="26" width="24" height="24"/><text x="204" y="43">226</text>
    <rect fill="#fe6b80" x="201" y="1" width="24" height="24"/><text x="204" y="18">227</text>
    <rect fill="#fe6c84" x="226" y="76" width="24" height="24"/><text x="229" y="93">228</text>
    <rect fill="#ff6d88" x="226" y="51" width="24" height="24"/><text x="229" y="68">229</text>
    <rect fill="#ff6f8c" x="226" y="26" width="24" height="24"/><text x="229" y="43">230</text>
    <rect fill="#ff7091" x="226" y="1" width="24" height="24"/><text x="229" y="18">231</text>
    <rect fill="#ff7195" x="251" y="76" width="24" height="24"/><text x="254" y="93">232</text>
    <rect fill="#ff7399" x="251" y="51" width="24" height="24"/><text x="254" y="68">233</text>
    <rect fill="#ff749d" x="251" y="26" width="24" height="24"/><text x="254" y="43">234</text>
    <rect fill="#ff76a2" x="251" y="1" width="24" height="24"/><text x="254" y="18">235</text>
    <rect fill="#ff77a6" x="276" y="76" width="24" height="24"/><text x="279" y="93">236</text>
    <rect fill="#ff78aa" x="276" y="51" width="24" height="24"/><text x="279" y="68">237</text>
    <rect fill="#ff7aaf" x="276" y="26" width="24" height="24"/><text x="279" y="43">238</text>
    <rect fill="#ff7bb3" x="276" y="1" width="24" height="24"/><text x="279" y="18">239</text>
    <rect fill="#ff7db7" x="301" y="76" width="24" height="24"/><text x="304" y="93">240</text>
    <rect fill="#ff7ebc" x="301" y="51" width="24" height="24"/><text x="304" y="68">241</text>
    <rect fill="#ff7fc0" x="301" y="26" width="24" height="24"/><text x="304" y="43">242</text>
    <rect fill="#ff81c4" x="301" y="1" width="24" height="24"/><text x="304" y="18">243</text>
    <rect fill="#ff82c9" x="326" y="76" width="24" height="24"/><text x="329" y="93">244</text>
    <rect fill="#ff84cd" x="326" y="51" width="24" height="24"/><text x="329" y="68">245</text>
    <rect fill="#ff85d2" x="326" y="26" width="24" height="24"/><text x="329" y="43">246</text>
    <rect fill="#ff86d6" x="326" y="1" width="24" height="24"/><text x="329" y="18">247</text>
    <rect fill="#ff88db" x="351" y="76" width="24" height="24"/><text x="354" y="93">248</text>
    <rect fill="#ff89df" x="351" y="51" width="24" height="24"/><text x="354" y="68">249</text>
    <rect fill="#ff8be3" x="351" y="26" width="24" height="24"/><text x="354" y="43">250</text>
    <rect fill="#ff8ce8" x="351" y="1" width="24" height="24"/><text x="354" y="18">251</text>
    <rect fill="#ff8dec" x="376" y="76" width="24" height="24"/><text x="379" y="93">252</text>
    <rect fill="#fe8ff1" x="376" y="51" width="24" height="24"/><text x="379" y="68">253</text>
    <rect fill="#fe90f5" x="376" y="26" width="24" height="24"/><text x="379" y="43">254</text>
    <rect fill="#fd92fa" x="376" y="1" width="24" height="24"/><text x="379" y="18">255</text>
</svg>
